<?xml version="1.0" encoding="UTF-8" standalone="no"?>
<!-- Created with Inkscape (http://www.inkscape.org/) -->

<svg
   xmlns:dc="http://purl.org/dc/elements/1.1/"
   xmlns:cc="http://creativecommons.org/ns#"
   xmlns:rdf="http://www.w3.org/1999/02/22-rdf-syntax-ns#"
   xmlns:svg="http://www.w3.org/2000/svg"
   xmlns="http://www.w3.org/2000/svg"
   version="1.1"
   width="480.4801"
   height="480.72375"
   id="svg4941">
  <defs
     id="defs4943">
    <clipPath
       id="clipPath4070-5">
      <path
         d="m 486.983,60.219 c -0.268,0 -0.523,0.028 -0.791,0.028 l 0,0 -0.12,-0.099 c 0,-0.092 0.113,-0.092 0.176,-0.092 l 0,0 c 0.494,0 0.459,-0.134 0.459,-0.579 l 0,0 0,-2.889 c 0,-0.444 0.035,-0.578 -0.451,-0.578 l 0,0 c -0.071,0 -0.184,0 -0.184,-0.092 l 0,0 0.12,-0.099 c 0.24,0 0.466,0.029 0.706,0.029 l 0,0 c 0.678,0 1.37,-0.029 2.048,-0.029 l 0,0 c 0.191,0 0.176,0.085 0.183,0.268 l 0,0 c 0.008,0.248 0.078,0.495 0.078,0.735 l 0,0 -0.063,0.099 -0.085,-0.091 c -0.078,-0.192 -0.205,-0.453 -0.367,-0.586 l 0,0 c -0.198,-0.163 -0.523,-0.234 -0.777,-0.234 l 0,0 c -0.636,0 -0.65,0.254 -0.65,0.791 l 0,0 0,2.676 c 0,0.445 -0.036,0.579 0.459,0.579 l 0,0 c 0.064,0 0.184,0 0.184,0.092 l 0,0 -0.12,0.099 c -0.269,0 -0.537,-0.028 -0.805,-0.028"
         id="path4072-4" />
    </clipPath>
    <clipPath
       id="clipPath4324-5">
      <path
         d="m 443.054,93.236 c 0,-24.835 12.847,-46.47 31.833,-57.749 l 0,0 60.113,0 c 18.987,11.279 31.833,32.914 31.833,57.749 l 0,0 c 0,36.477 -27.709,66.048 -61.889,66.048 l 0,0 c -34.181,0 -61.89,-29.571 -61.89,-66.048"
         id="path4326-5" />
    </clipPath>
  </defs>
  <g
     transform="translate(-156.90284,-392.00031)"
     id="layer1">
    <g
       transform="matrix(3.8675684,0,0,-3.8675684,-1555.7618,1009.0413)"
       id="g4066"
       style="fill:#000000">
      <g
         clip-path="url(#clipPath4070-5)"
         id="g4068"
         style="fill:#000000">
        <path
           d="m 486.072,55.819 3.135,0 0,4.428 -3.135,0 0,-4.428 z"
           id="path4074"
           style="fill:#000000;fill-opacity:1;fill-rule:nonzero;stroke:none" />
      </g>
    </g>
    <g
       transform="matrix(3.8675684,0,0,-3.8675684,-1555.7618,1009.0413)"
       id="g4320"
       style="fill:#000000">
      <g
         clip-path="url(#clipPath4324-5)"
         id="g4322"
         style="fill:#000000">
        <g
           transform="translate(504.94341,156.8215)"
           id="g4328"
           style="fill:#000000">
          <path
             d="m 0,0 c -32.821,0 -59.427,-26.607 -59.427,-59.428 0,-32.821 26.606,-59.427 59.427,-59.427 32.822,0 59.427,26.606 59.427,59.427 C 59.427,-26.607 32.822,0 0,0 m -58.827,-59.428 c 0,16.246 6.584,30.951 17.23,41.598 C -30.95,-7.184 -16.246,-0.6 0,-0.6 c 16.246,0 30.951,-6.584 41.597,-17.23 10.646,-10.647 17.23,-25.352 17.23,-41.598 0,-16.245 -6.584,-30.95 -17.23,-41.597 C 30.951,-111.671 16.246,-118.254 0,-118.254 c -16.246,0 -30.95,6.583 -41.597,17.229 -10.646,10.647 -17.23,25.352 -17.23,41.597 M 3.9e-4,2.4623 c -33.507,0 -60.795,-28.418 -61.858,-63.901 1.063,-33.249 28.35,-59.878 61.858,-59.878 33.507,0 60.794,26.629 61.858,59.878 -1.063,35.483 -28.351,63.901 -61.858,63.901 m -60.677,-61.89 c 0,16.758 6.79,31.923 17.772,42.906 10.982,10.981 26.147,17.771 42.905,17.772 16.757,-10e-4 31.923,-6.791 42.905,-17.772 10.982,-10.983 17.772,-26.148 17.772,-42.906 0,-16.758 -6.791,-31.923 -17.772,-42.905 -10.982,-10.981 -26.148,-17.771 -42.905,-17.772 l 0.892,0 -0.892,0 c -16.758,10e-4 -31.923,6.791 -42.905,17.772 -10.982,10.982 -17.772,26.148 -17.772,42.905 l 0,0.935 0,-0.935 m 60.98129,45.72681 c -2.571,0 -4.925,-1.15 -6.277,-3.322 -0.177,-0.385 0.089,-0.978 -0.207,-1.333 l -3.348,-0.652 c -4.149,-0.801 -7.913,-3.675 -10.521,-7.172 -1.156,-0.355 -2.311,-1.156 -2.993,-2.223 -1.126,-0.503 -2.223,-1.63 -2.904,-2.637 -1.512,-0.445 -3.112,-0.919 -4.119,-2.4 -0.131,-0.062 -0.28,-0.079 -0.434,-0.079 -0.098,0 -0.198,0.007 -0.298,0.014 -0.099,0.007 -0.199,0.013 -0.296,0.013 -0.314,0 -0.596,-0.072 -0.751,-0.452 -0.177,-1.037 1.008,-1.63 1.482,-2.282 l -0.059,-3.704 c -1.067,-0.267 0.148,-0.919 0.059,-1.482 -0.859,-0.83 1.037,-1.126 0.356,-2.075 0.237,-0.504 0.593,-1.096 1.215,-1.274 0.047,-1.73 0.103,-11.725 0.144,-20.718 l 0.528,0 -0.088,20.771 1.37,1.28 c 0.087,-0.018 0.186,-0.025 0.292,-0.025 0.142,0 0.296,0.012 0.452,0.024 0.156,0.012 0.314,0.024 0.463,0.024 0.502,0 0.903,-0.135 0.788,-0.857 l 0.506,-0.446 0.089,-20.771 0.746,0 0.034,20.86 c 0.536,0.388 1.311,0.923 1.221,1.697 0.167,0.126 0.373,0.153 0.591,0.153 0.086,0 0.174,-0.004 0.261,-0.008 0.088,-0.005 0.176,-0.009 0.263,-0.009 0.077,0 0.152,0.004 0.226,0.013 -0.119,-0.833 0.417,-1.489 1.072,-1.846 l 0.149,-3.455 -0.032,-17.405 0.628,0 -0.035,20.711 c 0.65,0.583 1.367,1.604 2.202,1.604 0.275,0 0.563,-0.11 0.865,-0.383 -0.179,-0.655 0.685,-0.864 0.804,-1.37 l 0,-20.562 0,0 0.36,0 0.36,0 0,20.771 c 0.686,0.446 1.311,1.072 1.49,1.875 0.337,0.1 0.684,0.133 1.036,0.133 0.704,0 1.425,-0.133 2.12,-0.133 -0.208,-0.536 0.03,-1.041 0.358,-1.429 l 0.863,-0.506 c 0,0 0.098,-10.817 0.165,-20.711 l 0.603,0 -0.088,20.621 c 0.775,0.328 0.715,1.281 1.43,1.669 0.089,-0.032 0.194,-0.043 0.308,-0.043 0.141,0 0.295,0.017 0.449,0.035 0.154,0.017 0.308,0.034 0.448,0.034 0.357,0 0.624,-0.112 0.582,-0.622 l 0.506,-0.715 0,-20.979 0.746,0 0.004,20.711 c 0.536,0.476 1.46,0.983 1.489,1.787 0.188,0.188 0.436,0.225 0.698,0.225 0.085,0 0.171,-0.004 0.257,-0.008 0.086,-0.004 0.171,-0.008 0.255,-0.008 0.151,0 0.297,0.013 0.428,0.059 0.079,-0.002 0.157,-0.003 0.237,-0.003 0.227,0 0.458,0.008 0.69,0.017 0.232,0.008 0.464,0.017 0.693,0.017 0.433,0 0.854,-0.031 1.239,-0.151 -0.148,-0.773 0.477,-1.398 1.073,-1.667 0.019,0.002 0.038,0.003 0.056,0.003 0.271,0 0.478,-0.201 0.45,-0.479 l 0,-20.503 0,0 0.31,0 0.31,0 0,21.128 c 0.619,0.337 0.653,1.231 1.381,1.231 0.044,0 0.09,-0.003 0.138,-0.01 0.144,0 0.298,0.005 0.453,0.005 0.58,0 1.162,-0.074 1.185,-0.78 l 0.507,-0.506 0,-21.068 0.779,0 0,21.068 c 0.715,0.388 1.4,0.864 1.519,1.698 l 2.561,0 c 0.328,-0.179 0.149,-0.566 0.298,-0.834 0.249,-0.372 0.579,-0.765 1.045,-0.765 0.093,0 0.192,0.015 0.296,0.05 l 0.149,-0.238 0.148,-19.985 0,-0.994 0.574,0 -0.216,21.337 c 0.387,0.357 0.655,0.773 1.132,1.012 l 1.727,0 0.864,-1.281 0.072,-21.068 0.853,0 -0.092,20.92 c 0.507,0.625 1.311,0.982 1.311,1.936 0.357,0.037 0.644,0.146 0.941,0.146 0.174,0 0.351,-0.037 0.549,-0.146 -0.09,-0.775 0.327,-1.46 1.012,-1.788 l 0.156,-21.068 0.597,0 -0.092,11.27 c -0.061,0.893 -0.179,1.458 0.059,2.293 -0.149,0.744 -0.059,1.608 -0.059,2.293 l -0.09,4.915 c 0.119,0.893 1.191,0.893 1.519,1.638 l 1.281,0 c 0.268,-0.477 0.566,-1.013 0.982,-1.341 -0.029,-3.157 0.358,-9.768 0.15,-10.156 l 0.039,-10.912 0.716,0 -0.091,20.718 1.067,1.364 c -0.059,0.682 0.326,1.155 0.651,1.689 -0.77,0.859 0.86,1.511 -0.089,2.133 l 0,4.149 c 0.297,0.652 1.038,0.622 1.364,1.186 0.089,0.296 0.149,0.77 -0.089,1.007 -0.143,-0.036 -0.276,-0.052 -0.4,-0.052 -1.407,0 -1.623,2.143 -3.067,2.334 -1.393,0.118 -2.074,1.541 -3.2,2.282 -1.897,0.563 -2.638,2.607 -4.476,3.319 -0.027,-0.004 -0.053,-0.006 -0.078,-0.006 -0.364,0 -0.565,0.371 -0.87,0.509 -3.349,4.179 -7.912,6.431 -13.069,6.698 -0.563,0.208 -0.504,0.771 -0.504,1.274 -1.156,1.423 -2.548,2.579 -4.178,2.993 -0.6,0.121 -1.197,0.181 -1.784,0.181 m -5.324,-3.072 0,0.297 c 1.269,1.485 3.059,2.429 5.106,2.429 0.493,0 1.002,-0.055 1.522,-0.17 1.278,-0.595 2.823,-1.07 3.507,-2.497 l -10.135,-0.059 m -0.243,-1.224 c -0.297,0.119 -0.093,0.606 0.056,0.695 l 10.615,0.027 c 0.06,-0.119 0.272,-0.301 0.213,-0.509 l -0.129,-0.213 -10.755,0 m -13.52,-7.694 c 1.754,2.913 4.816,4.756 7.788,5.857 3.137,1.011 6.64,1.211 10.207,1.211 1.173,0 2.354,-0.022 3.53,-0.043 1.174,-0.022 2.345,-0.043 3.5,-0.043 0.27,0 0.538,0.001 0.806,0.003 0.088,0.004 0.175,0.006 0.262,0.006 1.927,0 3.472,-0.917 5.206,-1.343 2.379,-1.307 4.756,-2.943 6.57,-5.291 l 0,-0.208 -4.072,-0.149 -33.797,0 m 35.713,-0.589 c 0.277,0 0.562,0.042 0.877,0.084 1.903,-0.119 4.132,-0.03 5.053,-1.932 l -0.416,-0.119 -44.496,-0.089 -0.149,0.148 c 0.713,1.16 2.021,1.546 3.27,1.784 l 35.52,0.149 c 0.113,-0.018 0.226,-0.025 0.341,-0.025 m 1.948,-2.538 c 0.483,0 0.98,0.023 1.477,0.045 0.498,0.023 0.996,0.046 1.483,0.046 1.679,0 3.221,-0.271 4.114,-1.749 l -0.446,-0.148 -50.293,-0.12 c -0.327,0.357 1.486,1.665 2.229,1.843 l 40.217,0.149 c 0.391,-0.049 0.8,-0.066 1.219,-0.066 m -42.238,-2.52 45.656,0.238 c 0.064,0.058 0.126,0.08 0.184,0.08 0.081,0 0.158,-0.041 0.233,-0.082 0.076,-0.041 0.15,-0.082 0.225,-0.082 0.071,0 0.144,0.036 0.22,0.143 l 1.486,-0.148 c 0.401,0.095 0.814,0.143 1.227,0.143 1.513,0 3.015,-0.643 3.855,-1.927 -0.892,-0.116 -1.826,-0.137 -2.768,-0.137 -0.265,0 -0.531,0.002 -0.796,0.003 -0.264,0.002 -0.527,0.004 -0.79,0.004 -0.946,0 -1.883,-0.021 -2.779,-0.137 l -51.571,-0.149 -0.148,0.208 c 1.325,1.484 3.122,1.858 5.056,1.858 0.235,0 0.472,-0.006 0.71,-0.015 m -7.418,-3.362 c -0.149,0.029 -0.548,0.419 -0.489,0.597 l 0.208,0.149 46.726,0.209 15.754,0 c 0.06,-0.089 0.198,-0.204 0.198,-0.366 0.001,-0.283 -0.601,-0.409 -0.601,-0.409 l -61.796,-0.18 m 1.146,-5.258 c -0.476,1.041 -0.297,2.288 -0.148,3.418 0.178,0.297 -0.565,0.535 0,0.654 l 59.656,0.149 c 0.386,-1.13 0.118,-2.527 0.208,-3.805 l -0.297,-0.267 -59.419,-0.149 m 0.089,-1.575 c -0.327,0.148 -0.178,0.475 -0.237,0.713 l 0.297,0.297 46.786,0.208 12.423,0 c 0.15,-0.029 0.298,-0.208 0.358,-0.357 -0.043,-0.505 -0.397,-0.606 -0.834,-0.606 -0.145,0 -0.298,0.011 -0.452,0.022 -0.155,0.011 -0.31,0.022 -0.458,0.022 -0.203,0 -0.392,-0.021 -0.545,-0.091 -0.684,-0.104 -1.435,-0.156 -2.181,-0.156 -0.747,0 -1.49,0.052 -2.159,0.156 l -1.159,-0.119 -51.839,-0.089 m 46.685,-0.325 c 0.261,0 0.539,0.021 0.82,0.041 0.282,0.021 0.567,0.042 0.841,0.042 0.845,0 1.595,-0.196 1.866,-1.185 -0.182,-0.382 -0.303,-0.923 -0.818,-0.923 -0.243,0.222 -0.698,0.191 -0.728,0.637 0.06,0.128 0.145,0.17 0.24,0.17 0.094,0 0.199,-0.041 0.299,-0.083 0.101,-0.041 0.199,-0.082 0.281,-0.082 0.125,0 0.211,0.097 0.211,0.441 l -0.516,0.446 c -1.103,-0.023 -2.207,-0.289 -3.322,-0.289 -0.447,0 -0.896,0.043 -1.347,0.161 -0.273,0 -0.546,-0.191 -0.637,-0.478 0.182,-0.382 1.031,0.127 0.789,-0.669 -0.11,-0.172 -0.306,-0.24 -0.505,-0.24 -0.132,0 -0.266,0.03 -0.375,0.081 -0.273,0.255 -0.546,0.542 -0.424,0.988 0.25,0.852 0.92,0.916 1.616,0.916 0.061,0 0.123,-10e-4 0.184,-10e-4 0.062,-0.001 0.124,-0.001 0.185,-0.001 0.273,0 0.539,0.01 0.774,0.074 0.175,-0.034 0.366,-0.046 0.566,-0.046 m 7.115,-2.014 c -0.218,0 -0.464,0.164 -0.651,0.243 -0.334,0.192 -0.243,0.701 -0.152,0.988 0.242,0.51 0.757,0.733 1.243,0.829 l 4.427,-0.064 c 0.515,-0.351 0.818,-1.052 0.363,-1.53 -0.153,-0.251 -0.412,-0.37 -0.674,-0.37 -0.204,0 -0.409,0.072 -0.568,0.211 0,0.159 -0.243,0.319 -0.061,0.446 0.073,0.128 0.139,0.174 0.202,0.174 0.081,0 0.158,-0.077 0.237,-0.153 0.078,-0.076 0.16,-0.152 0.251,-0.152 0.012,0 0.025,10e-4 0.037,0.004 0.213,0.127 0.304,0.413 0.152,0.605 l -0.303,0.287 c -0.65,-0.128 -1.348,-0.148 -2.055,-0.148 -0.161,0 -0.322,0.001 -0.484,0.002 -0.162,10e-4 -0.323,0.002 -0.484,0.002 -0.552,0 -1.097,-0.012 -1.617,-0.079 -0.09,-0.159 -0.454,-0.256 -0.242,-0.446 0.109,-0.153 0.286,-0.158 0.443,-0.158 0.006,0 0.012,0 0.018,0 0.005,0 0.01,0 0.015,0 0.221,0 0.391,-0.01 0.252,-0.448 -0.092,-0.181 -0.215,-0.243 -0.349,-0.243 m -20.203,-0.227 c -0.243,0 -0.508,0.136 -0.723,0.218 -0.607,0.382 -0.152,0.892 0,1.306 0.653,0.61 1.493,0.745 2.388,0.745 0.358,0 0.725,-0.021 1.092,-0.043 0.367,-0.022 0.734,-0.043 1.093,-0.043 0.26,0 0.515,0.011 0.763,0.042 0.424,-0.191 0.94,-0.478 1.152,-0.988 -0.182,-0.382 -0.212,-0.987 -0.728,-1.019 -0.394,0.032 -0.758,0.287 -0.94,0.637 0.07,0.306 0.176,0.407 0.296,0.407 0.114,0 0.24,-0.09 0.361,-0.18 0.12,-0.089 0.234,-0.179 0.322,-0.179 0.099,0 0.166,0.112 0.174,0.462 -0.172,0.292 -0.384,0.39 -0.613,0.39 -0.42,0 -0.895,-0.329 -1.268,-0.39 -0.165,0.015 -0.333,0.021 -0.502,0.021 -0.184,0 -0.37,-0.007 -0.555,-0.013 -0.186,-0.006 -0.371,-0.013 -0.554,-0.013 -0.493,0 -0.969,0.046 -1.39,0.26 -0.364,-0.032 -0.606,-0.255 -0.849,-0.542 -0.091,-0.223 0.091,-0.319 0.212,-0.478 0.181,0.027 0.251,0.353 0.454,0.353 0.036,0 0.077,-0.01 0.123,-0.034 0.242,-0.16 0.151,-0.541 0.06,-0.765 -0.108,-0.113 -0.234,-0.154 -0.368,-0.154 m -12.178,-0.163 c -0.485,0 -1.031,0.16 -1.152,0.701 0,0.542 0.212,1.02 0.637,1.307 1.105,0.133 2.221,0.312 3.328,0.312 0.746,0 1.488,-0.081 2.22,-0.312 0.698,-0.382 0.152,-0.892 0.213,-1.465 -0.133,-0.18 -0.409,-0.297 -0.67,-0.297 -0.157,0 -0.308,0.042 -0.422,0.137 -0.121,0.16 -0.303,0.255 -0.212,0.478 0.064,0.224 0.154,0.299 0.255,0.299 0.104,0 0.218,-0.079 0.325,-0.159 0.108,-0.079 0.208,-0.158 0.284,-0.158 0.09,0 0.145,0.111 0.136,0.464 l -0.272,0.319 c -0.466,-0.069 -0.972,-0.083 -1.494,-0.083 -0.189,0 -0.381,0.002 -0.573,0.004 -0.191,10e-4 -0.383,0.003 -0.574,0.003 -0.812,0 -1.619,-0.033 -2.332,-0.243 -0.061,-0.096 -0.364,-0.223 -0.121,-0.382 0.043,-0.127 0.142,-0.15 0.253,-0.15 0.032,0 0.065,0.002 0.098,0.004 0.033,0.002 0.066,0.004 0.098,0.004 0.134,0 0.252,-0.033 0.278,-0.24 -0.03,-0.192 -0.121,-0.383 -0.303,-0.543 m -10.399,2.206 c 0.333,0 0.672,0.012 1.012,0.025 0.341,0.012 0.682,0.024 1.02,0.024 0.831,0 1.639,-0.074 2.344,-0.407 0.181,-0.318 0.454,-0.796 0.121,-1.147 -0.186,-0.243 -0.494,-0.542 -0.833,-0.542 -0.105,0 -0.212,0.029 -0.319,0.096 -0.243,0.191 -0.152,0.638 -0.061,0.892 0.056,0.055 0.113,0.076 0.168,0.076 0.106,0 0.211,-0.077 0.313,-0.154 0.101,-0.077 0.199,-0.155 0.291,-0.155 0.081,0 0.158,0.06 0.228,0.233 0.182,0.415 -0.272,0.446 -0.424,0.638 -0.697,-0.214 -1.469,-0.259 -2.248,-0.259 -0.291,0 -0.582,0.006 -0.87,0.012 -0.288,0.007 -0.574,0.013 -0.853,0.013 -0.259,0 -0.513,-0.005 -0.759,-0.021 -0.121,-0.159 -0.425,-0.255 -0.304,-0.51 0.059,-0.158 0.156,-0.202 0.265,-0.202 0.069,0 0.143,0.018 0.213,0.036 0.071,0.018 0.138,0.037 0.195,0.037 0.119,0 0.191,-0.081 0.146,-0.412 -0.151,-0.192 -0.318,-0.247 -0.493,-0.247 -0.174,0 -0.356,0.055 -0.538,0.087 -0.303,0.287 -0.485,0.733 -0.303,1.147 l 0.97,0.765 c 0.235,-0.018 0.476,-0.025 0.719,-0.025 m -10.174,-1.958 c -0.359,0 -0.679,0.352 -0.791,0.677 -0.091,0.637 0.485,1.051 0.97,1.147 0.694,0.134 1.422,0.163 2.165,0.163 0.293,0 0.588,-0.005 0.884,-0.009 0.296,-0.005 0.593,-0.009 0.891,-0.009 0.263,0 0.527,0.003 0.79,0.014 0.364,-0.255 0.697,-0.351 0.849,-0.829 0.06,-0.541 0,-1.178 -0.576,-1.306 -0.334,0.064 -0.758,0.096 -0.94,0.447 -0.031,0.222 0.06,0.413 0.212,0.541 0.059,0.033 0.117,0.047 0.172,0.047 0.108,0 0.209,-0.051 0.303,-0.102 0.093,-0.051 0.181,-0.102 0.262,-0.102 0.072,0 0.139,0.04 0.203,0.157 0.06,0.35 -0.334,0.573 -0.576,0.701 -0.645,-0.2 -1.368,-0.259 -2.104,-0.259 -0.786,0 -1.587,0.067 -2.323,0.1 -0.273,-0.128 -0.606,-0.287 -0.728,-0.606 -0.091,-0.191 0.152,-0.255 0.213,-0.382 0.141,0 0.31,0.141 0.46,0.141 0.075,0 0.146,-0.035 0.207,-0.141 -0.031,-0.255 -0.243,-0.35 -0.455,-0.383 -0.03,-0.004 -0.059,-0.007 -0.088,-0.007 m 29.078,-19.692 c -0.729,0 -1.318,-0.627 -1.689,-1.225 -0.043,-0.175 -0.072,-0.361 -0.078,-0.548 l 0.86,-0.003 0,0 c 0.033,0.477 -0.153,1.185 0.499,1.269 0.014,0.001 0.027,0.001 0.04,0.001 0.693,0 0.619,-0.796 0.816,-1.267 l 0.001,0 0.326,0.001 0.735,0.003 0.018,0.037 c -0.328,0.656 -0.745,1.371 -1.43,1.728 -0.033,0.002 -0.066,0.004 -0.098,0.004 m 0.7747,-1.772104 -0.326,-0.001 0.005,-0.012 c -0.148,-0.327 -0.267,-0.743 -0.564,-0.921 -0.417,0.089 -0.595,0.536 -0.803,0.862 l 0.006,0.068 -0.86,0.003 c -0.015,-0.451 0.099,-0.897 0.436,-1.15 -0.685,-0.298 -1.251,-1.102 -1.787,-1.578 0.417,-1.132 0.625,-2.353 0.923,-3.515 -0.393,-0.043 -0.905,-0.17 -1.312,-0.17 -0.148,0 -0.282,0.017 -0.392,0.06 l 0.002,6.353 -0.746,0 0,0 0,-14.254 c -0.521,-0.164 -1.139,-0.231 -1.765,-0.231 -0.625,0 -1.258,0.067 -1.808,0.171 l -0.061,14.314 -0.604,-0.002 c 0.046,-6.853 0.078,-13.264 0.054,-15.336 -0.655,-0.12 -0.759,-0.707 -0.938,-1.213 -0.233,0.053 -0.483,0.072 -0.744,0.072 -0.367,0 -0.755,-0.038 -1.144,-0.077 -0.388,-0.038 -0.778,-0.077 -1.149,-0.077 -0.921,0 -1.726,0.238 -2.11,1.306 l 0,15.327 -0.36,0 -0.36,0 0,0 0,-14.165 -0.298,-0.299 c -0.192,0.01 -0.387,0.014 -0.584,0.014 -0.219,0 -0.44,-0.005 -0.661,-0.009 -0.22,-0.004 -0.441,-0.008 -0.66,-0.008 -0.56,0 -1.108,0.027 -1.61,0.153 l -0.024,14.314 -0.628,0 -0.027,-15.327 c -0.656,-0.298 -0.388,-0.983 -0.864,-1.34 l -1.787,0.06 -1.132,1.28 0.025,15.327 -0.746,0 0.061,-14.106 -0.507,-0.416 c -0.102,0.003 -0.206,0.004 -0.311,0.004 -0.22,0 -0.447,-0.005 -0.677,-0.01 -0.23,-0.005 -0.463,-0.01 -0.697,-0.01 -0.58,0 -1.16,0.03 -1.68,0.164 l -0.061,14.374 -0.527,-0.001 c 0.037,-7.944 0.063,-15.108 0.063,-15.108 -0.089,-0.533 -0.919,-0.356 -0.712,-1.009 -0.07,-0.433 -0.39,-0.53 -0.785,-0.53 -0.158,0 -0.329,0.016 -0.5,0.031 -0.171,0.016 -0.342,0.032 -0.502,0.032 -0.124,0 -0.241,-0.01 -0.346,-0.036 -0.445,-0.149 -0.178,-0.623 -0.356,-0.918 -0.134,-0.236 -0.354,-0.281 -0.589,-0.281 -0.073,0 -0.147,0.005 -0.221,0.009 -0.073,0.004 -0.146,0.008 -0.216,0.008 -0.034,0 -0.068,-0.001 -0.1,-0.003 -0.016,10e-4 -0.032,0.002 -0.047,0.002 -0.375,0 -0.457,-0.341 -0.457,-0.655 -0.22,-0.464 -0.702,-0.505 -1.18,-0.505 -0.102,0 -0.203,0.002 -0.301,0.002 -0.415,-0.03 -0.149,-0.474 -0.238,-0.711 -0.248,-0.226 -0.581,-0.279 -0.935,-0.279 -0.112,0 -0.225,0.005 -0.339,0.012 -0.326,-0.415 -0.267,-1.274 -0.059,-1.779 l 73.293,0.24 c 0.296,0.504 0.241,1.204 -0.115,1.797 -1.59,0.076 -1.255,1.372 -2.5,1.372 -0.581,1.442 -1.996,0.218 -2.697,1.925 -0.129,0.051 -0.272,0.065 -0.421,0.065 -0.09,0 -0.182,-0.005 -0.275,-0.011 -0.092,-0.005 -0.184,-0.01 -0.275,-0.01 -0.286,0 -0.555,0.051 -0.747,0.313 -0.861,0.54 -0.549,1.997 -0.622,3.111 l -0.058,12.917 -0.716,0 0.05,-13.957 c -0.499,-0.185 -1.059,-0.227 -1.635,-0.227 -0.239,0 -0.482,0.007 -0.724,0.015 -0.242,0.007 -0.483,0.014 -0.721,0.014 -0.146,0 -0.292,-0.003 -0.434,-0.01 l -0.209,0.208 -0.116,13.957 -0.597,0 0.113,-15.178 c -0.269,-0.149 -0.805,-0.238 -0.715,-0.715 0.118,-0.328 -0.149,-0.417 -0.358,-0.565 l -1.638,0.059 -1.131,1.31 -0.09,2.056 -0.058,13.033 -0.853,0 0.047,-13.957 -0.208,-0.425 -3.127,0 -0.149,0.425 -0.142,13.957 -0.573,0 0,-15.237 c -0.119,-0.143 -0.3,-0.153 -0.48,-0.153 -0.014,0 -0.029,0 -0.043,0 -0.012,0 -0.025,0 -0.037,0 -0.241,0 -0.464,-0.016 -0.512,-0.353 0.029,-0.328 -0.031,-0.686 -0.358,-0.775 l -3.366,0 -1.221,1.281 0,15.237 -0.779,0 0,-14.106 c -0.484,-0.185 -1.023,-0.227 -1.574,-0.227 -0.228,0 -0.459,0.007 -0.689,0.015 -0.23,0.007 -0.46,0.014 -0.685,0.014 -0.141,0 -0.28,-0.003 -0.417,-0.01 -0.537,1.013 -0.209,2.383 -0.298,3.574 l 0,10.74 -0.31,0 -0.31,0 0,0 0,-14.165 c -0.049,-0.129 -0.141,-0.153 -0.243,-0.153 -0.031,0 -0.064,0.002 -0.096,0.004 -0.033,0.002 -0.066,0.005 -0.097,0.005 -0.024,0 -0.048,-0.002 -0.07,-0.005 l -0.315,0.235 -0.089,5.807 c 0.564,0.208 0.415,1.334 0.386,1.81 -0.263,0.204 -0.564,0.232 -0.873,0.232 -0.059,0 -0.117,-10e-4 -0.176,-0.002 -0.059,-0.001 -0.118,-0.002 -0.176,-0.002 -0.206,0 -0.411,0.012 -0.605,0.081 -0.357,1.638 2.651,3.961 -0.357,4.914 0.376,0.347 0.359,0.833 0.548,1.239 l -0.735,0.001 m -2.123,-2.603 c 0.156,0 0.328,0.063 0.435,0.094 0.535,0.237 -0.149,1.099 0.595,1.129 0.327,-0.268 -0.119,-0.922 0.416,-1.07 l 1.129,-0.059 c 0.178,-0.446 -0.297,-0.922 -0.565,-1.13 -0.66,-0.066 -1.32,-0.377 -1.992,-0.377 -0.236,0 -0.473,0.039 -0.713,0.139 l -0.505,1.07 c 0.327,0.357 0.744,0.773 1.219,0.951 0,-0.178 -0.327,-0.327 -0.357,-0.505 0.058,-0.187 0.191,-0.242 0.338,-0.242 m 0.435,-2.196 -0.059,0.209 c 0.457,-0.01 1.027,0.055 1.01,-0.4 -0.057,-0.085 -0.125,-0.117 -0.199,-0.117 -0.116,0 -0.248,0.077 -0.376,0.154 -0.129,0.078 -0.254,0.155 -0.356,0.155 -0.006,0 -0.013,0 -0.02,-0.001 m -0.224,-1.432 c -0.096,0 -0.186,0.045 -0.251,0.155 -0.208,0.297 -0.625,0.594 -0.357,1.01 0.446,-0.059 0.921,-0.505 1.07,-0.862 -0.113,-0.169 -0.297,-0.303 -0.462,-0.303 m -1.922,-1.389 c -0.245,0.123 -0.424,0.193 -0.503,0.626 l 0.154,0.214 6.033,0 c 0.122,-0.122 0.031,-0.336 0.061,-0.52 l -0.244,-0.261 -5.501,-0.059 m -0.733,-6.558 c -0.3,1.705 -0.113,5.991 -0.113,5.991 l 0.516,-0.121 c -0.025,-1.561 0.104,-4.215 0.008,-5.758 -0.004,-0.074 -0.034,-0.098 -0.075,-0.098 -0.037,0 -0.085,0.02 -0.132,0.039 -0.047,0.02 -0.094,0.04 -0.131,0.04 -0.04,0 -0.069,-0.023 -0.073,-0.093 m 2.603,-0.281 c -0.66,0.06 -1.11,-0.06 -1.651,0.21 l -0.09,5.705 0.21,0.209 4.684,0 0.24,-0.209 0,-5.555 -0.15,-0.209 c -0.178,-0.01 -0.359,-0.014 -0.541,-0.014 -0.202,0 -0.406,0.005 -0.609,0.009 -0.205,0.004 -0.408,0.008 -0.611,0.008 -0.515,0 -1.018,-0.027 -1.482,-0.154 m 27.211,-0.832 c -0.601,0 -1.187,0.055 -1.695,0.244 l 0.27,0.421 3.122,0 c 0.211,-0.09 0.391,-0.361 0.211,-0.571 -0.605,-0.031 -1.265,-0.094 -1.908,-0.094 m -10.149,0.446 c 0.335,0 0.684,0.053 1.032,0.105 0.347,0.053 0.693,0.106 1.021,0.106 0.411,0 0.794,-0.083 1.119,-0.353 l -0.06,-0.21 -3.183,-0.151 c -0.15,0.061 -0.3,0.331 -0.15,0.511 0.073,-0.006 0.147,-0.008 0.221,-0.008 m -9.685,-0.521 c -0.608,0 -1.214,0.043 -1.763,0.169 l 0.3,0.42 2.942,0 c 0.24,-0.06 0.39,-0.329 0.15,-0.51 -0.516,-0.043 -1.073,-0.079 -1.629,-0.079 m -6.195,-1.144 c -0.951,0 -1.902,0.03 -2.957,0.09 -0.237,0.505 -1.129,1.01 -0.564,1.575 1.085,0.044 2.207,0.067 3.332,0.067 1.126,0 2.256,-0.023 3.355,-0.067 l 0.208,-0.208 -0.416,-1.367 c -1.055,-0.06 -2.007,-0.09 -2.958,-0.09 m -7.557,1.67 c 0.276,0 0.559,0.009 0.845,0.018 0.286,0.009 0.574,0.019 0.857,0.019 0.506,0 0.995,-0.03 1.429,-0.141 0.031,-0.182 -0.114,-0.372 -0.266,-0.402 l -3.404,0.002 c -0.182,0.152 -0.182,0.364 0.061,0.516 0.155,-0.009 0.315,-0.012 0.478,-0.012 m -11.219,-0.005 c 0.233,0 0.469,0.009 0.705,0.018 0.237,0.009 0.473,0.018 0.706,0.018 0.594,0 1.164,-0.058 1.648,-0.322 l -0.364,-0.364 -3.335,0 c -0.06,0.151 -0.212,0.242 -0.151,0.455 l 0.303,0.212 c 0.16,-0.012 0.323,-0.017 0.488,-0.017 m -8.148,-0.733 c -0.535,0 -1.041,0.062 -1.461,0.291 l 0.211,0.36 3.452,0 c 0.18,-0.03 0.24,-0.241 0.21,-0.421 l -0.21,-0.149 c -0.09,0.004 -0.181,0.006 -0.274,0.006 -0.31,0 -0.634,-0.022 -0.96,-0.044 -0.325,-0.021 -0.651,-0.043 -0.968,-0.043 m 50.598,-0.813 c -0.12,0.119 -0.21,0.483 -0.15,0.752 0.079,0.009 0.176,0.013 0.286,0.013 0.679,0 1.815,-0.142 1.815,-0.142 0.775,0 1.648,0.11 2.379,0.11 0.233,0 0.451,-0.011 0.647,-0.04 0.03,0 0.331,-0.573 0.211,-0.603 l -5.188,-0.09 m -9.155,-0.118 c -0.24,0.161 -0.24,0.446 -0.09,0.689 l 5.379,0.102 0.243,-0.417 -0.069,-0.346 -5.463,-0.028 m -8.5,10e-4 c -0.783,0 -1.559,0.025 -2.248,0.08 -0.15,0.151 0.115,0.538 0.265,0.598 l 4.479,0 0.176,-0.577 c -0.813,-0.066 -1.748,-0.101 -2.672,-0.101 m -14.843,0.012 c -0.242,0.121 -0.182,0.457 -0.03,0.609 l 4.788,0 c 0.029,-0.122 0.329,-0.367 0.147,-0.488 l -0.213,-0.121 -4.692,0 m -10.505,0.481 c 0.322,0 0.652,0.006 0.985,0.012 0.334,0.006 0.671,0.011 1.006,0.011 0.726,0 1.442,-0.027 2.094,-0.14 0.121,-0.425 -0.111,-0.47 -0.516,-0.515 l -4.111,0 c -0.121,0.121 -0.273,0.212 -0.212,0.424 l 0.303,0.213 c 0.148,-0.004 0.299,-0.005 0.451,-0.005 m -8.746,-0.066 c 0.316,0 0.634,0.005 0.951,0.009 0.318,0.004 0.635,0.009 0.95,0.009 0.795,0 1.579,-0.028 2.323,-0.154 0.06,-0.211 -0.12,-0.301 -0.211,-0.421 l -4.683,0 c -0.27,0.03 -0.45,0.421 -0.15,0.57 0.271,-0.01 0.545,-0.013 0.82,-0.013 m 37.19,-0.845 c 3.33,0 6.493,0.053 9.663,0.105 3.172,0.052 6.351,0.104 9.714,0.104 0.724,0 1.457,-0.002 2.2,-0.007 0.089,-0.094 0.299,-0.125 0.209,-0.313 -0.246,-0.128 -0.537,-0.145 -0.837,-0.145 -0.056,0 -0.112,0 -0.168,10e-4 -0.057,0 -0.115,0.001 -0.172,0.001 -0.316,0 -0.625,-0.02 -0.884,-0.168 l -23.361,-0.126 c -0.567,0.047 -1.202,0.07 -1.844,0.07 -0.643,0 -1.292,-0.023 -1.89,-0.07 l -32.919,-0.156 c -0.039,-0.011 -0.075,-0.016 -0.109,-0.016 -0.147,0 -0.253,0.097 -0.399,0.172 -0.03,0.157 0.059,0.344 0.239,0.375 l 35.364,0.089 2.093,0.1 c 1.052,-0.011 2.084,-0.016 3.101,-0.016 m 19.942,-0.888 c 0.26,0 0.524,0.006 0.787,0.012 0.262,0.006 0.525,0.012 0.784,0.012 0.704,0 1.389,-0.044 2.005,-0.253 l -0.358,-0.282 c -0.224,-0.01 -0.452,-0.013 -0.681,-0.013 -0.26,0 -0.522,0.004 -0.785,0.009 -0.262,0.004 -0.524,0.009 -0.785,0.009 -0.657,0 -1.302,-0.029 -1.901,-0.16 l -61.448,-0.218 c -0.15,0.092 -0.051,0.488 0.038,0.613 1.091,-0.004 2.182,-0.006 3.272,-0.006 3.02,0 6.036,0.013 9.04,0.027 3.01,0.013 6.008,0.027 8.986,0.027 1.086,0 2.169,-0.002 3.249,-0.006 l 37.072,0.25 c 0.238,-0.016 0.48,-0.021 0.725,-0.021 m -64.085,-2.156 c -0.15,0.124 -0.06,0.374 -0.09,0.53 l 0.21,0.157 c 0,0 63.853,0.314 64.51,0.408 0.512,0.083 1.137,0.118 1.79,0.118 1.065,0 2.202,-0.094 3.035,-0.23 0.15,-0.124 0.154,-0.38 0.184,-0.535 -1.474,-0.162 -3.069,-0.206 -4.703,-0.206 -0.939,0 -1.893,0.015 -2.842,0.029 -0.951,0.014 -1.899,0.029 -2.829,0.029 -0.876,0 -1.736,-0.013 -2.567,-0.051 l -56.698,-0.249 m 7.663,-0.575 c 0.119,0 0.24,0.008 0.361,0.028 l 0.714,0.062 51.57,0.312 c 0.446,0.109 0.959,0.164 1.469,0.164 0.509,0 1.014,-0.055 1.445,-0.164 l 1.784,0.156 5.796,0 c 0.267,-0.093 0.504,-0.53 0.207,-0.748 l -0.214,-0.311 -62.978,-0.157 c -0.629,0.077 -1.261,0.105 -1.897,0.105 -0.817,0 -1.639,-0.046 -2.462,-0.093 -0.823,-0.046 -1.647,-0.092 -2.47,-0.092 -0.797,0 -1.594,0.043 -2.386,0.172 -0.03,0.126 -0.267,0.313 0,0.438 l 0.208,0.156 7.134,0 c 0.157,0.055 0.321,0.074 0.489,0.074 0.194,0 0.395,-0.025 0.6,-0.051 0.206,-0.026 0.416,-0.051 0.63,-0.051 m 59.61652,-11.770705 0.007,-0.292 1.737,-5.367001 c 0.069,-0.202 0.226,-0.697 0.212,-0.897 -0.014,-0.2 -0.155,-0.343 -0.303,-0.461 -0.073,-0.059 -0.228,-0.185 -0.135,-0.299 0.026,-0.033 0.055,-0.046 0.086,-0.046 0.101,0 0.218,0.142 0.28,0.193 0.229,0.186 0.431,0.404 0.66,0.589 0.229,0.184 0.484,0.337 0.712,0.522 0.082,0.067 0.197,0.159 0.117,0.258 -0.028,0.034 -0.059,0.047 -0.091,0.047 -0.076,0 -0.156,-0.072 -0.208,-0.113 -0.129,-0.105 -0.35,-0.265 -0.546,-0.265 -0.088,0 -0.171,0.032 -0.239,0.116 -0.119,0.146 -0.192,0.371 -0.249,0.541 l -0.251,0.811 c -0.116,0.393 -0.191,0.387 0.135,0.65 l 1.111,0.9 c 0.188,0.152 0.273,0.22 0.366,0.22 0.101,0 0.213,-0.082 0.478,-0.226 l 0.764,-0.41 c 0.126,-0.072 0.346,-0.193 0.439,-0.307 0.198,-0.245 -0.113,-0.496 -0.325,-0.668 -0.081,-0.067 -0.237,-0.192 -0.138,-0.315 l 0.197,0.025 c 0.302,0.244 0.586,0.528 0.88,0.766 0.36,0.291 0.746,0.55 1.105,0.84 l 0.056,0.181 c -0.031,0.037 -0.066,0.052 -0.103,0.052 -0.084,0 -0.176,-0.075 -0.233,-0.121 -0.114,-0.093 -0.239,-0.129 -0.367,-0.129 -0.321,0 -0.667,0.227 -0.944,0.379 l -4.969,2.764001 -0.241,0.062 m 1.532,-3.844001 -0.056,0.118 -0.64,1.942001 -0.059,0.358 0.329,-0.139 1.68,-0.939001 0.202,-0.133 c 0.073,-0.09 -0.135,-0.218 -0.184,-0.258 l -0.939,-0.76 -0.333,-0.189 m -5.67191,0.4544 c -0.033,0 -0.067,-0.01 -0.099,-0.028 -0.266,-0.148 -0.503,-0.327 -0.779,-0.48 -0.276,-0.152 -0.554,-0.259 -0.829,-0.412 -0.092,-0.051 -0.14,-0.137 -0.085,-0.238 0.02,-0.036 0.051,-0.049 0.086,-0.049 0.066,0 0.147,0.045 0.201,0.075 0.216,0.12 0.367,0.177 0.484,0.177 0.231,0 0.332,-0.22 0.545,-0.604 l 1.957,-3.529 -5.593,2.415 c -0.147,0.066 -0.266,0.133 -0.412,0.133 -0.044,0 -0.091,-0.006 -0.142,-0.02 l -1.141,-0.632 c -0.101,-0.056 -0.215,-0.131 -0.139,-0.269 0.02,-0.035 0.051,-0.048 0.086,-0.048 0.065,0 0.146,0.045 0.2,0.074 0.215,0.119 0.365,0.175 0.481,0.175 0.23,0 0.326,-0.221 0.539,-0.607 l 2.084,-3.759 c 0.316,-0.569 0.469,-0.737 -0.174,-1.093 -0.083,-0.046 -0.255,-0.105 -0.189,-0.224 0.033,-0.058 0.077,-0.082 0.126,-0.082 0.037,0 0.077,0.014 0.117,0.036 0.266,0.147 0.521,0.337 0.779,0.479 0.276,0.153 0.554,0.259 0.828,0.412 0.092,0.051 0.137,0.123 0.081,0.224 -0.022,0.04 -0.051,0.054 -0.084,0.054 -0.064,0 -0.142,-0.058 -0.197,-0.089 -0.213,-0.118 -0.363,-0.173 -0.478,-0.173 -0.234,0 -0.331,0.224 -0.542,0.605 l -2.303,4.153 6.642,-2.878 c 0.068,-0.038 0.186,-0.109 0.282,-0.109 0.025,0 0.049,0.005 0.07,0.016 l -0.033,0.21 -2.587,4.669 c -0.316,0.57 -0.46,0.743 0.174,1.094 0.092,0.05 0.239,0.132 0.183,0.233 -0.035,0.063 -0.086,0.089 -0.139,0.089 m -8.31951,-4.2274 c -0.03,0 -0.062,-0.008 -0.094,-0.02 -0.372,-0.144 -0.731,-0.326 -1.103,-0.468 -0.373,-0.144 -0.741,-0.24 -1.114,-0.383 -0.098,-0.038 -0.156,-0.094 -0.114,-0.201 0.022,-0.059 0.068,-0.078 0.119,-0.078 0.06,0 0.127,0.026 0.175,0.044 0.196,0.075 0.338,0.112 0.447,0.112 0.27,0 0.33,-0.23 0.499,-0.672 l 1.544,-4.022 c 0.238,-0.618 0.362,-0.795 -0.325,-1.059 -0.088,-0.034 -0.249,-0.084 -0.2,-0.212 0.025,-0.064 0.066,-0.087 0.114,-0.087 0.032,0 0.067,0.01 0.102,0.024 0.373,0.143 0.731,0.325 1.103,0.468 0.373,0.143 0.741,0.239 1.115,0.383 0.087,0.034 0.158,0.083 0.117,0.191 -0.021,0.054 -0.062,0.072 -0.11,0.072 -0.064,0 -0.14,-0.032 -0.19,-0.051 -0.193,-0.072 -0.334,-0.107 -0.442,-0.107 -0.272,0 -0.336,0.226 -0.508,0.675 l -1.544,4.023 c -0.238,0.617 -0.358,0.786 0.329,1.049 0.088,0.034 0.254,0.098 0.205,0.225 -0.026,0.069 -0.072,0.094 -0.125,0.094 m -4.5829,-1.2605 c -0.007,0 -0.014,-0.001 -0.022,-0.003 -0.103,-0.025 -0.1,-0.122 -0.11,-0.212 -0.031,-0.31 -0.298,-0.323 -0.564,-0.389 l -3.701,-0.923 c -0.114,-0.028 -0.25,-0.078 -0.376,-0.078 -0.054,0 -0.106,0.009 -0.154,0.032 -0.097,0.042 -0.102,0.105 -0.136,0.194 l -0.118,0.09 c -0.092,-0.023 -0.095,-0.099 -0.098,-0.175 l -0.067,-1.426 0,-0.26 0.133,-0.096 c 0.102,0.025 0.14,0.218 0.163,0.3 0.286,0.937 0.64,1.123 1.568,1.354 0.143,0.036 0.245,0.077 0.322,0.077 0.093,0 0.15,-0.059 0.2,-0.26 l 1.177,-4.721 c 0.16,-0.642 0.263,-0.834 -0.451,-1.012 -0.092,-0.022 -0.257,-0.052 -0.225,-0.185 0.02,-0.077 0.067,-0.101 0.124,-0.101 0.026,0 0.054,0.005 0.083,0.012 0.387,0.096 0.765,0.234 1.152,0.33 0.387,0.096 0.764,0.147 1.152,0.244 0.092,0.022 0.169,0.064 0.141,0.176 -0.017,0.067 -0.069,0.086 -0.128,0.086 -0.058,0 -0.123,-0.018 -0.169,-0.03 -0.159,-0.04 -0.283,-0.06 -0.381,-0.06 -0.333,0 -0.366,0.236 -0.492,0.741 l -1.126,4.517 c -0.13,0.519 -0.125,0.499 0.334,0.614 l 0.592,0.147 c 0.161,0.041 0.314,0.079 0.464,0.079 0.144,0 0.285,-0.036 0.427,-0.138 0.202,-0.156 0.344,-0.423 0.469,-0.619 l 0.148,-0.115 c 0.112,0.027 0.099,0.122 0.079,0.204 l -0.249,1.259 c -0.017,0.067 -0.038,0.347 -0.161,0.347 m -7.70909,-2.2134 c -0.007,0 -0.014,0 -0.021,-10e-4 -0.304,-0.026 -0.594,-0.094 -0.908,-0.121 -0.313,-0.028 -0.61,-0.011 -0.924,-0.038 -0.105,-0.01 -0.184,-0.07 -0.174,-0.185 0.007,-0.081 0.092,-0.098 0.174,-0.098 0.035,0 0.07,0.003 0.098,0.006 0.082,0.007 0.155,0.011 0.219,0.011 0.51,0 0.497,-0.234 0.548,-0.819 l 0.351,-4.021 -4.126,4.481 c -0.14,0.157 -0.237,0.296 -0.461,0.329 l -1.298,-0.113 c -0.115,-0.011 -0.251,-0.033 -0.237,-0.19 0.007,-0.081 0.092,-0.098 0.175,-0.098 0.035,0 0.069,0.003 0.097,0.005 0.082,0.007 0.155,0.011 0.219,0.011 0.508,0 0.486,-0.234 0.538,-0.819 l 0.374,-4.283 c 0.057,-0.648 0.128,-0.864 -0.604,-0.928 -0.095,-0.008 -0.275,0.008 -0.264,-0.128 0.009,-0.104 0.081,-0.142 0.171,-0.142 0.01,0 0.021,0 0.031,10e-4 0.304,0.027 0.614,0.096 0.908,0.122 0.314,0.027 0.61,0.011 0.925,0.038 0.105,0.01 0.174,0.058 0.164,0.173 -0.007,0.078 -0.063,0.096 -0.127,0.096 -0.049,0 -0.103,-0.01 -0.144,-0.014 -0.08,-0.007 -0.15,-0.01 -0.212,-0.01 -0.514,0 -0.494,0.24 -0.544,0.819 l -0.414,4.732 4.897,-5.331 c 0.057,-0.077 0.161,-0.229 0.272,-0.229 0.004,0 0.008,0 0.011,0 0.095,0.009 0.06,0.154 0.056,0.206 l -0.465,5.318 c -0.057,0.649 -0.119,0.865 0.604,0.929 0.105,0.009 0.272,0.023 0.263,0.138 -0.01,0.106 -0.086,0.153 -0.172,0.153 m -15.47349,0.0161 c -0.079,0 -0.158,-0.019 -0.166,-0.11 -0.014,-0.157 0.164,-0.173 0.268,-0.182 0.482,-0.042 0.579,-0.377 0.704,-0.768 l 1.78,-5.567 c 0.026,-0.066 0.058,-0.301 0.163,-0.31 l 0.193,0.279 2.605,5.057 c 0.103,0.212 0.277,0.514 0.458,0.656 0.11,0.076 0.237,0.102 0.359,0.102 0.028,0 0.055,-0.001 0.082,-0.004 0.016,-10e-4 0.034,-0.002 0.053,-0.002 0.091,0 0.202,0.023 0.211,0.127 0.008,0.094 -0.051,0.142 -0.134,0.148 -0.293,0.026 -0.59,0.01 -0.883,0.036 -0.293,0.026 -0.604,0.095 -0.897,0.12 -0.014,0.002 -0.028,0.002 -0.043,0.002 -0.094,0 -0.191,-0.03 -0.201,-0.138 -0.014,-0.158 0.356,-0.159 0.45,-0.166 0.188,-0.016 0.434,-0.091 0.414,-0.332 -0.014,-0.157 -0.128,-0.379 -0.193,-0.521 l -2.085,-4.058 -1.485,4.613 c -0.041,0.13 -0.112,0.284 -0.099,0.43 0.01,0.118 0.187,0.139 0.337,0.139 0.042,0 0.081,-0.002 0.115,-0.003 0.032,-0.002 0.058,-0.004 0.075,-0.004 0.005,0 0.008,0.001 0.011,0.001 0.085,0.003 0.211,0.003 0.222,0.128 0.011,0.126 -0.093,0.135 -0.187,0.143 -0.324,0.028 -0.643,0.014 -0.957,0.042 -0.376,0.033 -0.729,0.105 -1.106,0.139 -0.02,0.002 -0.042,0.003 -0.064,0.003 m -6.25211,1.4572 c -1.624,0 -3.211,-0.896 -3.653,-2.544 -0.261,-0.974 -0.047,-1.881 0.538,-2.701 0.556,-0.769 1.351,-1.21 2.265,-1.455 0.404,-0.108 0.836,-0.176 1.265,-0.176 0.356,0 0.711,0.047 1.046,0.155 0.275,0.09 0.254,0.215 0.325,0.479 l 0.312,1.167 c 0.041,0.152 0.1,0.452 0.262,0.529 0.032,0.019 0.074,0.025 0.117,0.025 0.076,0 0.159,-0.02 0.219,-0.029 l 0.198,-0.031 c 0.035,-0.009 0.071,-0.018 0.105,-0.018 0.055,0 0.103,0.023 0.123,0.098 0.028,0.102 -0.058,0.146 -0.139,0.168 -0.356,0.096 -0.712,0.147 -1.057,0.24 -0.365,0.098 -0.72,0.236 -1.085,0.335 -0.041,0.01 -0.091,0.024 -0.138,0.024 -0.059,0 -0.111,-0.021 -0.131,-0.095 -0.035,-0.131 0.109,-0.159 0.211,-0.186 0.589,-0.158 0.666,-0.277 0.514,-0.846 l -0.226,-0.841 c -0.066,-0.244 -0.162,-0.685 -0.422,-0.801 -0.137,-0.062 -0.304,-0.086 -0.477,-0.086 -0.266,0 -0.547,0.055 -0.756,0.111 -0.873,0.234 -1.551,0.666 -1.95,1.491 -0.36,0.728 -0.383,1.495 -0.176,2.267 0.196,0.731 0.681,1.525 1.313,1.976 0.445,0.324 0.933,0.464 1.439,0.464 0.276,0 0.557,-0.041 0.84,-0.117 1.797,-0.482 1.253,-1.74 1.598,-1.832 0.015,-0.004 0.029,-0.006 0.042,-0.006 0.087,0 0.141,0.08 0.165,0.168 l 0.094,0.432 c 0.059,0.343 0.21,0.542 -0.1,0.766 -0.435,0.324 -1.04,0.583 -1.558,0.722 -0.367,0.099 -0.746,0.147 -1.123,0.147 m -10.2178,3.79711 c -1.291,0 -2.56,-0.641 -3.143,-1.836 -0.839,-1.72 0.094,-3.858 1.794,-4.687 0.567,-0.277 1.164,-0.413 1.745,-0.413 1.258,0 2.435,0.641 3.044,1.889 0.889,1.822 0.005,3.797 -1.79,4.672 -0.517,0.252 -1.086,0.375 -1.65,0.375 m -0.113,-6.519 c -0.37,0 -0.739,0.08 -1.088,0.251 -0.718,0.349 -1.236,0.965 -1.422,1.734 -0.196,0.774 -0.016,1.575 0.33,2.282 0.331,0.681 0.838,1.31 1.535,1.637 0.355,0.172 0.734,0.256 1.113,0.256 0.404,0 0.81,-0.095 1.19,-0.28 0.708,-0.345 1.175,-0.971 1.365,-1.731 0.192,-0.805 0.025,-1.531 -0.33,-2.259 -0.345,-0.707 -0.795,-1.271 -1.516,-1.622 -0.376,-0.174 -0.777,-0.268 -1.177,-0.268 m -9.85749,13.445296 c -0.031,0 -0.061,-0.015 -0.09,-0.053 -0.088,-0.118 0.017,-0.222 0.101,-0.285 0.453,-0.342 0.448,-0.418 0.092,-0.821 l -3.062,-3.521996 c -0.213,-0.249 -0.368,-0.421 -0.573,-0.421 -0.117,0 -0.251,0.056 -0.421,0.184 -0.052,0.039 -0.139,0.099 -0.213,0.099 -0.034,0 -0.064,-0.012 -0.088,-0.043 l 0.059,-0.203 c 0.243,-0.183 0.52,-0.339 0.772,-0.529 0.252,-0.19 0.478,-0.413 0.73,-0.603 0.05,-0.037 0.114,-0.085 0.174,-0.085 0.031,0 0.061,0.013 0.087,0.047 0.088,0.118 -0.094,0.242 -0.178,0.306 -0.596,0.448 -0.265,0.87 0.154,1.357 l 2.849,3.273996 0.059,-0.045 -1.553,-5.499996 0.005,-0.254 0.24,0.056 5.152,2.96 0.059,-0.045 -2.866,-3.801 c -0.113,-0.151 -0.33,-0.475 -0.562,-0.485 -0.004,0 -0.009,0 -0.014,0 -0.147,0 -0.347,0.089 -0.468,0.18 -0.061,0.046 -0.163,0.136 -0.251,0.136 -0.034,0 -0.065,-0.013 -0.092,-0.048 -0.069,-0.093 0.016,-0.171 0.084,-0.222 0.327,-0.246 0.688,-0.466 1.024,-0.719 0.268,-0.202 0.511,-0.438 0.78,-0.64 0.042,-0.032 0.096,-0.068 0.148,-0.068 0.031,0 0.061,0.013 0.087,0.048 0.095,0.126 -0.094,0.243 -0.178,0.306 -0.117,0.088 -0.237,0.191 -0.245,0.355 -0.012,0.194 0.249,0.523 0.351,0.657 l 2.612,3.467 c 0.113,0.151 0.327,0.503 0.516,0.545 0.013,0.003 0.027,0.005 0.041,0.005 0.134,0 0.28,-0.143 0.378,-0.217 0.052,-0.038 0.12,-0.08 0.186,-0.08 0.042,0 0.083,0.017 0.117,0.063 0.101,0.134 -0.081,0.206 -0.174,0.275 l -0.931,0.702 c -0.064,0.049 -0.123,0.093 -0.197,0.093 -0.034,0 -0.071,-0.009 -0.112,-0.031 l -4.714,-2.659 1.357,4.977996 c 0.05,0.173 0.124,0.288 -0.035,0.408 l -0.974,0.734 c -0.066,0.05 -0.146,0.144 -0.223,0.144 m 76.72059,5.31369 -1.29,-1.592 -1.592,1.289 -0.357,-0.44 1.593,-1.29 -1.284,-1.584 0.442,-0.357 1.283,1.583 1.583,-1.282 0.358,0.441 -1.585,1.283 1.29,1.592 -0.441,0.357 z m 4.1715,13.264801 c -0.057,0 -0.093,-0.048 -0.125,-0.112 -0.133,-0.274 -0.234,-0.576 -0.372,-0.859 -0.138,-0.283 -0.314,-0.548 -0.453,-0.831 -0.041,-0.085 -0.101,-0.208 0.013,-0.264 0.018,-0.008 0.034,-0.012 0.05,-0.012 0.104,0 0.175,0.164 0.215,0.245 0.153,0.313 0.338,0.427 0.549,0.427 0.241,0 0.516,-0.149 0.813,-0.319 l 3.758,-2.172 -0.033,-0.066 -5.695,0.475 c -0.033,0.005 -0.075,0.014 -0.116,0.014 -0.054,0 -0.107,-0.015 -0.133,-0.069 l 0.101,-0.224 3.889,-4.493 -0.033,-0.065 -4.278,2.086 c -0.17,0.083 -0.529,0.235 -0.582,0.46 -0.035,0.145 0.014,0.367 0.084,0.508 0.045,0.095 0.161,0.284 0.019,0.353 -0.019,0.009 -0.038,0.014 -0.054,0.014 -0.071,0 -0.116,-0.077 -0.147,-0.138 -0.179,-0.368 -0.325,-0.765 -0.51,-1.143 -0.147,-0.301 -0.332,-0.586 -0.479,-0.888 -0.037,-0.075 -0.079,-0.184 0.025,-0.235 0.02,-0.009 0.038,-0.014 0.055,-0.014 0.108,0 0.171,0.166 0.211,0.248 0.064,0.132 0.143,0.268 0.303,0.308 0.02,0.005 0.043,0.008 0.067,0.008 0.199,0 0.509,-0.161 0.644,-0.227 l 3.901,-1.902 c 0.169,-0.083 0.557,-0.225 0.634,-0.403 0.062,-0.135 -0.068,-0.329 -0.128,-0.452 -0.046,-0.095 -0.091,-0.236 0.041,-0.301 0.023,-0.011 0.043,-0.016 0.062,-0.016 0.1,0 0.132,0.151 0.175,0.239 l 0.512,1.049 c 0.05,0.104 0.096,0.199 0.002,0.315 l -3.509,4.12 5.144,-0.382 c 0.074,-0.007 0.139,-0.019 0.196,-0.019 0.082,0 0.147,0.026 0.198,0.131 l 0.535,1.096 c 0.05,0.104 0.18,0.25 0.03,0.324 -0.026,0.013 -0.05,0.018 -0.072,0.018 -0.092,0 -0.154,-0.095 -0.191,-0.171 -0.145,-0.298 -0.231,-0.425 -0.37,-0.425 -0.098,0 -0.224,0.064 -0.417,0.178 l -4.041,2.333 c -0.449,0.254 -0.681,0.402 -0.422,0.931 0.041,0.086 0.11,0.251 -0.003,0.305 -0.024,0.012 -0.044,0.017 -0.063,0.017 m 8.13051,5.150009 c -0.114,0 -0.158,-0.144 -0.185,-0.233 -0.142,-0.463 -0.49,-0.487 -0.898,-0.528 l -5.815,-0.585 c -0.07,-0.01 -0.307,0.007 -0.337,-0.095 l 0.232,-0.246 4.405,-3.599 c 0.186,-0.145 0.445,-0.378 0.546,-0.585 0.064,-0.151 0.048,-0.311 0.005,-0.452 -0.028,-0.091 -0.054,-0.247 0.067,-0.284 0.018,-0.005 0.034,-0.008 0.049,-0.008 0.063,0 0.105,0.044 0.124,0.108 0.086,0.282 0.132,0.575 0.218,0.857 0.086,0.282 0.219,0.571 0.305,0.852 0.03,0.1 0.037,0.23 -0.084,0.267 -0.009,0.003 -0.017,0.004 -0.026,0.004 -0.133,0 -0.203,-0.324 -0.229,-0.409 -0.048,-0.158 -0.148,-0.349 -0.326,-0.349 -0.026,0 -0.055,0.004 -0.085,0.013 -0.15,0.046 -0.344,0.204 -0.469,0.297 l -3.536,2.884 4.821,0.492 c 0.089,0.009 0.19,0.028 0.289,0.028 0.053,0 0.104,-0.005 0.153,-0.02 0.18,-0.055 0.028,-0.481 0.017,-0.554 -0.015,-0.085 -0.041,-0.208 0.079,-0.245 0.018,-0.005 0.033,-0.007 0.047,-0.007 0.083,0 0.108,0.084 0.132,0.162 0.095,0.311 0.147,0.625 0.24,0.926 0.11,0.363 0.254,0.692 0.365,1.053 0.028,0.09 0.055,0.215 -0.056,0.248 -0.017,0.006 -0.033,0.008 -0.048,0.008 m -5.02161,7.968888 c -0.089,0 -0.119,-0.074 -0.132,-0.158 -0.062,-0.394 -0.083,-0.795 -0.146,-1.19 -0.062,-0.394 -0.163,-0.76 -0.226,-1.155 -0.014,-0.094 -0.006,-0.18 0.108,-0.198 0.007,-10e-4 0.014,-0.002 0.021,-0.002 0.116,0 0.132,0.164 0.146,0.253 0.083,0.477 0.191,0.603 0.452,0.603 0.129,0 0.296,-0.031 0.516,-0.066 l 1.599,-0.253 c 0.093,-0.014 0.343,-0.043 0.407,-0.118 l 0.015,-0.236 c -0.124,-0.789 -0.206,-0.765 -0.992,-1.023 l -2.185,-0.698 c -0.169,-0.058 -0.375,-0.089 -0.409,-0.296 l -0.174,-1.101 c -0.013,-0.083 -0.019,-0.188 0.085,-0.204 0.008,-0.001 0.016,-0.002 0.024,-0.002 0.125,0 0.151,0.171 0.164,0.249 0.072,0.456 0.491,0.55 0.884,0.678 l 1.753,0.585 c 0.292,0.102 0.681,0.201 0.785,0.524 -0.022,-0.879 0.404,-1.745 1.349,-1.894 0.091,-0.015 0.179,-0.022 0.264,-0.022 0.93,0 1.481,0.83 1.624,1.734 0.094,0.591 0.144,1.179 0.24,1.781 0.052,0.332 0.15,0.678 0.202,1.01 0.018,0.114 -0.012,0.194 -0.126,0.212 -0.007,0.001 -0.013,0.001 -0.02,0.001 -0.108,0 -0.132,-0.152 -0.145,-0.241 -0.077,-0.48 -0.185,-0.607 -0.442,-0.607 -0.132,0 -0.302,0.034 -0.527,0.069 l -4.245,0.672 c -0.654,0.104 -0.869,0.085 -0.754,0.811 0.014,0.094 0.051,0.259 -0.084,0.279 -0.011,0.002 -0.021,0.003 -0.031,0.003 m 4.4,-4.829 c -0.105,0 -0.215,0.009 -0.331,0.027 -0.415,0.066 -0.777,0.261 -0.983,0.645 -0.238,0.443 -0.212,0.875 -0.136,1.352 0.025,0.167 0.012,0.502 0.231,0.502 0.012,0 0.025,-0.001 0.039,-0.003 l 1.858,-0.294 c 0.726,-0.115 0.826,-0.152 0.702,-0.941 -0.129,-0.812 -0.615,-1.288 -1.38,-1.288 m -4.1939,12.367101 c -0.175,0 -0.117,-0.272 -0.119,-0.376 -0.006,-0.295 0.031,-0.589 0.027,-0.883 -0.006,-0.295 -0.053,-0.588 -0.058,-0.883 -0.001,-0.104 -0.004,-0.251 0.122,-0.254 10e-4,0 0.002,0 0.003,0 0.144,0 0.136,0.177 0.138,0.271 0.004,0.24 0.043,0.697 0.384,0.697 0.002,0 0.004,0 0.007,0 0.189,-0.003 0.408,-0.091 0.575,-0.156 l 0.783,-0.33 c 0.375,-0.164 0.418,-0.102 0.41,-0.522 l -0.024,-1.429 c -0.009,-0.504 -0.008,-0.431 -0.548,-0.642 l -0.804,-0.322 c -0.136,-0.049 -0.363,-0.138 -0.511,-0.138 -0.002,0 -0.004,0 -0.007,0 -0.315,0.005 -0.308,0.404 -0.303,0.678 0.002,0.105 0.005,0.304 -0.152,0.307 -0.001,0 -0.001,0 -0.002,0 -0.093,0 -0.105,-0.103 -0.106,-0.166 -0.007,-0.389 0.028,-0.789 0.021,-1.168 -0.008,-0.461 -0.058,-0.923 -0.066,-1.385 0,-0.053 0.008,-0.158 0.103,-0.159 0.001,0 0.002,0 0.003,0 0.155,0 0.158,0.197 0.16,0.301 0.009,0.515 0.621,0.683 1.034,0.844 l 5.311,2.03 0.202,0.144 c 0.003,0.116 -0.144,0.15 -0.228,0.183 l -5.228,2.119 c -0.198,0.078 -0.679,0.275 -0.824,0.414 -0.144,0.139 -0.161,0.34 -0.158,0.528 0.002,0.095 0.005,0.294 -0.142,0.297 -10e-4,0 -0.002,0 -0.003,0 m 2.643,-4.134 c -0.116,10e-4 -0.08,0.243 -0.079,0.306 l 0.021,1.208 c 0,0.041 -0.036,0.377 0.069,0.377 0,0 0,0 0.001,0 l 0.125,-0.034 1.9,-0.758 0.311,-0.184 -0.318,-0.163 -1.798,-0.683 -0.232,-0.069 m 2.98909,11.019715 c -0.009,0 -0.019,-10e-4 -0.029,-0.002 -0.125,-0.015 -0.105,-0.182 -0.093,-0.276 0.089,-0.73 -0.115,-0.702 -0.783,-0.784 l -4.266,-0.524 c -0.205,-0.025 -0.366,-0.05 -0.493,-0.05 -0.279,0 -0.394,0.12 -0.456,0.622 -0.01,0.089 -0.02,0.246 -0.138,0.246 -0.006,0 -0.012,0 -0.019,-10e-4 -0.115,-0.014 -0.125,-0.1 -0.114,-0.194 0.049,-0.396 0.139,-0.788 0.188,-1.184 0.049,-0.396 0.053,-0.777 0.102,-1.173 0.011,-0.087 0.038,-0.163 0.133,-0.163 0.008,0 0.016,10e-4 0.025,0.002 0.135,0.017 0.103,0.193 0.091,0.287 -0.078,0.721 0.116,0.702 0.783,0.784 l 1.606,0.197 c 0.059,0.007 0.178,0.026 0.279,0.026 0.06,0 0.114,-0.007 0.144,-0.027 l 0.081,-0.223 c 0.097,-0.792 0.012,-0.792 -0.672,-1.258 l -1.908,-1.271 c -0.146,-0.103 -0.336,-0.19 -0.311,-0.399 l 0.136,-1.105 c 0.009,-0.078 0.031,-0.175 0.12,-0.175 0.005,0 0.011,10e-4 0.017,10e-4 0.147,0.018 0.123,0.206 0.113,0.289 -0.056,0.459 0.321,0.664 0.663,0.897 l 1.524,1.045 c 0.253,0.179 0.598,0.38 0.61,0.721 0.205,-0.791 0.778,-1.463 1.617,-1.463 0.066,0 0.133,0.004 0.201,0.013 1.096,0.134 1.466,1.175 1.344,2.166 -0.073,0.594 -0.187,1.174 -0.26,1.778 -0.042,0.334 -0.044,0.694 -0.085,1.028 -0.013,0.104 -0.056,0.17 -0.15,0.17 m -1.288,-4.283 c -0.338,0 -0.656,0.105 -0.907,0.362 -0.351,0.36 -0.445,0.782 -0.504,1.262 -0.022,0.177 -0.139,0.523 0.123,0.555 l 1.866,0.229 c 0.18,0.022 0.322,0.038 0.435,0.038 0.347,0 0.426,-0.151 0.5,-0.749 0.114,-0.928 -0.338,-1.566 -1.297,-1.684 -0.073,-0.009 -0.145,-0.013 -0.216,-0.013 m -0.28869,11.2037 c -0.013,0 -0.027,-0.002 -0.042,-0.005 -0.122,-0.031 -0.081,-0.194 -0.056,-0.296 0.176,-0.704 -0.038,-0.714 -0.67,-0.871 l -4.15,-1.035 c -0.252,-0.063 -0.436,-0.115 -0.576,-0.115 -0.224,0 -0.339,0.132 -0.446,0.564 -0.024,0.094 -0.068,0.238 -0.163,0.238 -0.008,0 -0.016,-10e-4 -0.025,-0.003 -0.113,-0.028 -0.133,-0.12 -0.11,-0.212 0.051,-0.204 0.147,-0.418 0.199,-0.622 l 0.993,-3.986 0.09,-0.097 1.118,0.117 0.255,0.019 0.087,0.131 c -0.03,0.122 -0.324,0.125 -0.403,0.137 -0.983,0.123 -1.144,0.679 -1.363,1.556 -0.2,0.805 -0.301,1.256 0.636,1.49 l 1.775,0.442 c 0.074,0.019 0.134,0.029 0.183,0.029 0.177,0 0.21,-0.132 0.29,-0.452 0.076,-0.306 0.209,-0.836 0.216,-1.256 0.005,-0.238 -0.28,-0.395 -0.564,-0.52 -0.058,-0.025 -0.163,-0.084 -0.14,-0.176 0.01,-0.038 0.033,-0.08 0.115,-0.08 0.026,0 0.058,0.004 0.097,0.014 0.323,0.092 0.624,0.188 0.945,0.29 0.291,0.05 0.602,0.107 0.89,0.168 l 0.074,0.137 c -0.019,0.076 -0.105,0.091 -0.17,0.091 -0.013,0 -0.025,-10e-4 -0.036,-10e-4 -0.106,-0.008 -0.222,-0.018 -0.332,-0.018 -0.21,0 -0.399,0.037 -0.461,0.199 -0.15,0.385 -0.272,0.918 -0.348,1.224 -0.104,0.418 -0.127,0.509 0.352,0.629 l 1.478,0.368 c 0.095,0.024 0.201,0.06 0.299,0.06 0.081,0 0.156,-0.025 0.211,-0.106 0.102,-0.148 0.213,-0.596 0.254,-0.759 0.087,-0.347 0.196,-0.785 0.178,-1.147 -0.018,-0.362 -0.166,-0.551 -0.444,-0.783 l -0.248,-0.224 c -0.063,-0.048 -0.186,-0.122 -0.163,-0.214 0.012,-0.049 0.053,-0.063 0.099,-0.063 0.05,0 0.107,0.017 0.138,0.025 l 0.877,0.218 c 0.133,0.034 0.391,0.043 0.342,0.238 -0.216,0.866 -0.47,1.712 -0.689,2.589 -0.158,0.632 -0.279,1.295 -0.437,1.927 -0.02,0.079 -0.075,0.141 -0.155,0.141 m -2.07701,6.8024 -1.423,-0.107 -0.257,-0.032 -0.08,-0.143 c 0.038,-0.098 0.234,-0.112 0.318,-0.125 0.966,-0.17 1.193,-0.499 1.536,-1.392 0.117,-0.303 0.235,-0.405 -0.118,-0.541 l -4.543,-1.743 c -0.274,-0.105 -0.461,-0.188 -0.608,-0.188 -0.184,0 -0.305,0.131 -0.451,0.513 -0.03,0.077 -0.072,0.209 -0.167,0.209 -0.014,0 -0.029,-0.002 -0.045,-0.009 -0.108,-0.042 -0.097,-0.127 -0.063,-0.215 0.142,-0.373 0.325,-0.731 0.468,-1.104 0.143,-0.373 0.239,-0.741 0.383,-1.113 0.027,-0.071 0.064,-0.13 0.133,-0.13 0.017,0 0.036,0.003 0.058,0.012 0.128,0.048 0.054,0.211 0.02,0.3 -0.26,0.677 -0.059,0.709 0.569,0.95 l 4.346,1.668 c 0.196,0.075 0.312,0.12 0.391,0.12 0.123,0 0.156,-0.108 0.26,-0.377 l 0.218,-0.568 c 0.117,-0.305 0.222,-0.58 0.05,-0.893 -0.13,-0.219 -0.378,-0.393 -0.558,-0.541 l -0.096,-0.161 c 0.023,-0.06 0.062,-0.079 0.105,-0.079 0.035,0 0.072,0.013 0.107,0.026 l 1.219,0.401 c 0.069,0.026 0.373,0.086 0.32,0.223 -0.028,0.075 -0.091,0.085 -0.159,0.085 -0.021,0 -0.043,-10e-4 -0.064,-10e-4 -0.005,0 -0.009,-0.001 -0.013,-0.001 -0.301,0 -0.346,0.261 -0.443,0.512 l -1.367,3.561 c -0.06,0.158 -0.169,0.352 -0.109,0.521 0.028,0.101 0.091,0.114 0.175,0.158 l 0.074,0.129 -0.186,0.075 m -2.35629,3.92739 c -0.022,0 -0.047,-0.006 -0.075,-0.02 -0.122,-0.06 -0.048,-0.211 -0.007,-0.296 0.323,-0.661 0.12,-0.701 -0.475,-0.991 l -3.873,-1.889 c -0.282,-0.138 -0.468,-0.242 -0.62,-0.242 -0.167,0 -0.294,0.127 -0.463,0.474 -0.035,0.072 -0.086,0.194 -0.175,0.194 -0.017,0 -0.034,-0.004 -0.053,-0.014 -0.104,-0.051 -0.086,-0.135 -0.045,-0.22 0.175,-0.359 0.388,-0.699 0.563,-1.058 0.175,-0.359 0.303,-0.718 0.478,-1.077 0.032,-0.065 0.071,-0.118 0.134,-0.118 0.02,0 0.042,0.005 0.067,0.018 0.123,0.06 0.036,0.216 -0.006,0.301 -0.309,0.656 -0.12,0.701 0.484,0.996 l 3.873,1.888 c 0.281,0.137 0.464,0.24 0.613,0.24 0.167,0 0.291,-0.127 0.461,-0.476 0.035,-0.072 0.097,-0.199 0.19,-0.199 0.016,0 0.034,0.004 0.052,0.013 0.104,0.051 0.096,0.141 0.055,0.226 -0.176,0.359 -0.389,0.699 -0.564,1.058 -0.175,0.359 -0.303,0.717 -0.478,1.076 -0.034,0.07 -0.075,0.116 -0.136,0.116 m -3.17641,5.26 c -0.025,0 -0.053,-0.009 -0.084,-0.028 -0.115,-0.072 -0.026,-0.215 0.024,-0.295 0.389,-0.624 0.192,-0.685 -0.369,-1.036 l -3.645,-2.278 c -0.286,-0.178 -0.463,-0.305 -0.619,-0.305 -0.15,0 -0.28,0.117 -0.469,0.419 -0.044,0.072 -0.111,0.179 -0.196,0.179 -0.02,0 -0.042,-0.006 -0.064,-0.02 l -0.03,-0.229 c 0.189,-0.303 0.403,-0.566 0.593,-0.869 0.534,-0.855 1.045,-1.751 1.579,-2.606 0.069,-0.111 0.126,-0.153 0.191,-0.153 0.077,0 0.164,0.059 0.293,0.132 0.317,0.187 0.684,0.292 0.987,0.481 l 0.075,0.159 -0.183,0.034 c -0.171,-0.03 -0.384,-0.057 -0.591,-0.057 -0.157,0 -0.31,0.016 -0.438,0.058 -0.361,0.122 -0.707,0.476 -0.907,0.797 -0.501,0.802 -0.191,1.02 0.486,1.444 l 3.378,2.11 c 0.285,0.178 0.461,0.304 0.617,0.304 0.151,0 0.283,-0.119 0.475,-0.427 0.042,-0.065 0.112,-0.178 0.2,-0.178 0.02,0 0.04,0.006 0.061,0.019 0.098,0.061 0.08,0.149 0.03,0.229 -0.212,0.339 -0.459,0.655 -0.67,0.994 -0.212,0.339 -0.377,0.682 -0.588,1.02 -0.039,0.061 -0.081,0.102 -0.136,0.102 m -7.73469,9.6884 -0.201,-0.004 -1.267,-0.654 -0.225,-0.13 -0.018,-0.163 0.342,0.008 c 0.24,0.056 0.441,0.084 0.618,0.084 0.528,0 0.842,-0.249 1.34,-0.764 0.226,-0.234 0.373,-0.282 0.101,-0.544 l -3.499,-3.38 c -0.273,-0.264 -0.428,-0.437 -0.606,-0.437 -0.132,0 -0.278,0.096 -0.496,0.323 -0.049,0.05 -0.122,0.134 -0.197,0.134 -0.026,0 -0.051,-0.009 -0.077,-0.034 l 0.026,-0.223 c 0.277,-0.287 0.585,-0.545 0.863,-0.832 0.277,-0.287 0.51,-0.589 0.787,-0.876 l 0.223,-0.034 c 0.098,0.095 -0.034,0.216 -0.1,0.285 -0.503,0.521 -0.33,0.63 0.153,1.097 l 3.349,3.234 c 0.193,0.186 0.286,0.275 0.371,0.275 0.086,0 0.164,-0.088 0.328,-0.258 l 0.423,-0.438 c 0.227,-0.235 0.431,-0.446 0.395,-0.803 -0.034,-0.252 -0.195,-0.509 -0.302,-0.715 l -0.026,-0.185 0.216,0.033 0.967,0.845 c 0.052,0.051 0.308,0.225 0.206,0.331 l -0.238,-0.01 c -0.059,-0.027 -0.111,-0.039 -0.159,-0.039 -0.187,0 -0.31,0.175 -0.46,0.331 l -2.65,2.744 c -0.117,0.122 -0.293,0.258 -0.305,0.437 -0.013,0.104 0.039,0.14 0.101,0.214 l 0.017,0.148 m -6.1312,4.429 -0.238,-0.018 c -0.075,-0.101 0.059,-0.202 0.143,-0.265 0.579,-0.437 0.419,-0.58 0.027,-1.1 l -2.574,-3.416 c -0.251,-0.333 -0.382,-0.534 -0.584,-0.534 -0.124,0 -0.273,0.075 -0.493,0.241 -0.059,0.044 -0.145,0.102 -0.215,0.102 -0.031,0 -0.058,-0.011 -0.079,-0.039 -0.069,-0.092 -0.028,-0.176 0.048,-0.233 0.168,-0.126 0.377,-0.232 0.545,-0.358 l 3.282,-2.474 0.13,-0.019 0.796,0.795 0.186,0.176 -0.014,0.156 c -0.017,0.013 -0.038,0.018 -0.061,0.018 -0.113,0 -0.282,-0.131 -0.339,-0.164 -0.297,-0.185 -0.549,-0.264 -0.782,-0.264 -0.426,0 -0.79,0.263 -1.257,0.615 -0.662,0.5 -1.025,0.787 -0.443,1.558 l 1.1,1.461 c 0.098,0.13 0.169,0.187 0.249,0.187 0.096,0 0.203,-0.081 0.386,-0.218 0.252,-0.189 0.688,-0.518 0.959,-0.841 0.152,-0.181 0.03,-0.483 -0.112,-0.758 l 0.002,-0.225 c 0.017,-0.013 0.037,-0.024 0.062,-0.024 0.036,0 0.083,0.025 0.144,0.105 0.194,0.275 0.367,0.539 0.552,0.82 0.195,0.223 0.401,0.462 0.586,0.691 l -0.028,0.153 -0.217,-0.06 c -0.185,-0.174 -0.404,-0.392 -0.602,-0.392 -0.044,0 -0.087,0.01 -0.128,0.034 -0.359,0.205 -0.789,0.542 -1.041,0.732 -0.344,0.259 -0.419,0.316 -0.122,0.711 l 0.916,1.216 c 0.094,0.125 0.193,0.297 0.353,0.297 0.023,0 0.047,-0.004 0.072,-0.012 0.173,-0.051 0.542,-0.329 0.677,-0.43 0.285,-0.215 0.645,-0.487 0.86,-0.78 0.213,-0.292 0.216,-0.532 0.146,-0.887 l -0.051,-0.33 0.008,-0.269 0.208,0.119 0.545,0.722 c 0.082,0.11 0.275,0.279 0.116,0.399 -0.714,0.538 -1.444,1.036 -2.166,1.579 -0.52,0.392 -1.032,0.831 -1.552,1.223 m -13.23221,7.0311 c -0.04,0 -0.075,-0.019 -0.099,-0.074 -0.06,-0.134 0.066,-0.213 0.162,-0.256 0.518,-0.231 0.531,-0.306 0.275,-0.779 l -2.191,-4.119 c -0.174,-0.334 -0.296,-0.55 -0.557,-0.55 -0.097,0 -0.214,0.029 -0.359,0.094 -0.049,0.022 -0.126,0.052 -0.192,0.052 -0.048,0 -0.091,-0.016 -0.113,-0.065 -0.042,-0.097 0.016,-0.146 0.102,-0.184 0.278,-0.124 0.584,-0.214 0.872,-0.342 0.288,-0.129 0.559,-0.295 0.847,-0.423 0.047,-0.021 0.107,-0.048 0.159,-0.048 0.043,0 0.08,0.018 0.103,0.069 0.06,0.135 -0.146,0.215 -0.242,0.257 -0.682,0.304 -0.454,0.789 -0.155,1.358 l 2.039,3.831 0.068,-0.03 -0.276,-5.709 c -0.011,-0.076 -0.033,-0.204 0.062,-0.246 l 0.222,0.108 4.353,4.043 0.067,-0.03 -1.936,-4.348 c -0.077,-0.174 -0.216,-0.537 -0.439,-0.598 -0.039,-0.011 -0.084,-0.016 -0.131,-0.016 -0.128,0 -0.275,0.035 -0.38,0.082 -0.06,0.027 -0.159,0.079 -0.24,0.079 -0.048,0 -0.089,-0.018 -0.113,-0.072 -0.046,-0.105 0.054,-0.162 0.132,-0.196 0.374,-0.167 0.774,-0.3 1.158,-0.47 0.308,-0.137 0.598,-0.312 0.905,-0.449 0.039,-0.017 0.086,-0.035 0.129,-0.035 0.043,0 0.081,0.017 0.105,0.069 0.064,0.144 -0.146,0.214 -0.242,0.257 -0.135,0.06 -0.275,0.134 -0.319,0.292 -0.055,0.186 0.125,0.565 0.193,0.719 l 1.765,3.964 c 0.078,0.174 0.206,0.565 0.381,0.648 0.027,0.014 0.058,0.019 0.089,0.019 0.123,0 0.268,-0.086 0.368,-0.131 0.046,-0.02 0.104,-0.04 0.157,-0.04 0.058,0 0.111,0.022 0.141,0.092 0.069,0.153 -0.125,0.182 -0.231,0.229 l -1.066,0.474 c -0.058,0.027 -0.114,0.051 -0.171,0.051 -0.046,0 -0.093,-0.016 -0.143,-0.06 l -3.995,-3.651 0.202,5.156 c 0.01,0.179 0.056,0.308 -0.126,0.39 l -1.113,0.496 c -0.068,0.03 -0.155,0.092 -0.227,0.092 m -8.36499,2.38231 c -0.056,0 -0.106,-0.019 -0.124,-0.085 -0.04,-0.152 0.132,-0.198 0.234,-0.225 0.467,-0.125 0.504,-0.473 0.559,-0.879 l 0.786,-5.792 c 0.015,-0.069 0.006,-0.306 0.107,-0.333 l 0.239,0.241 3.443,4.528 c 0.139,0.191 0.362,0.457 0.566,0.566 0.077,0.036 0.159,0.05 0.239,0.05 0.072,0 0.144,-0.011 0.212,-0.03 0.036,-0.009 0.082,-0.018 0.126,-0.018 0.07,0 0.136,0.021 0.155,0.095 0.025,0.091 -0.025,0.148 -0.107,0.17 -0.283,0.077 -0.578,0.112 -0.863,0.188 -0.284,0.076 -0.577,0.199 -0.862,0.275 -0.033,0.009 -0.07,0.015 -0.105,0.015 -0.071,0 -0.137,-0.026 -0.159,-0.108 -0.041,-0.152 0.323,-0.217 0.414,-0.241 0.183,-0.049 0.412,-0.165 0.35,-0.399 -0.041,-0.152 -0.192,-0.351 -0.28,-0.479 l -2.758,-3.634 -0.661,4.8 c -0.019,0.136 -0.062,0.3 -0.024,0.442 0.02,0.071 0.099,0.094 0.191,0.094 0.143,0 0.318,-0.052 0.363,-0.058 0.03,-0.004 0.065,-0.009 0.099,-0.009 0.062,0 0.121,0.018 0.142,0.097 0.032,0.121 -0.069,0.149 -0.16,0.173 -0.315,0.085 -0.63,0.125 -0.935,0.207 -0.365,0.098 -0.699,0.231 -1.065,0.329 -0.038,0.01 -0.082,0.02 -0.122,0.02 M 4.14138,-3.2426 c -0.089,0 -0.148,-0.038 -0.16,-0.136 -0.015,-0.126 0.152,-0.146 0.246,-0.158 0.729,-0.089 0.653,-0.281 0.571,-0.949 l -0.524,-4.265 c -0.069,-0.564 -0.059,-0.802 -0.516,-0.802 -0.075,0 -0.164,0.006 -0.268,0.019 -0.035,0.004 -0.081,0.012 -0.124,0.012 -0.073,0 -0.141,-0.02 -0.152,-0.105 -0.014,-0.115 0.066,-0.146 0.16,-0.158 0.397,-0.048 0.798,-0.055 1.194,-0.104 0.397,-0.048 0.768,-0.136 1.164,-0.185 0.018,-0.002 0.035,-0.004 0.052,-0.004 0.072,0 0.13,0.025 0.142,0.118 0.017,0.136 -0.162,0.147 -0.256,0.159 -0.718,0.098 -0.653,0.281 -0.572,0.949 l 0.197,1.605 c 0.012,0.095 0.032,0.346 0.104,0.411 l 0.236,0.025 c 0.792,-0.098 0.772,-0.18 1.058,-0.956 l 0.772,-2.16 c 0.065,-0.167 0.103,-0.372 0.311,-0.398 l 1.106,-0.136 c 0.021,-0.002 0.043,-0.004 0.065,-0.004 0.065,0 0.127,0.018 0.137,0.096 0.017,0.146 -0.17,0.169 -0.253,0.179 -0.46,0.057 -0.567,0.472 -0.711,0.861 l -0.644,1.73 c -0.113,0.289 -0.224,0.673 -0.552,0.767 0.879,0.008 1.73,0.465 1.846,1.414 0.135,1.096 -0.785,1.706 -1.776,1.827 -0.594,0.074 -1.184,0.104 -1.789,0.178 -0.334,0.041 -0.683,0.126 -1.017,0.167 -0.016,0.002 -0.032,0.003 -0.047,0.003 m 2.253,-3.405 c -0.156,0 -0.316,0.015 -0.481,0.035 -0.177,0.022 -0.54,-0.008 -0.508,0.253 l 0.229,1.867 c 0.071,0.583 0.107,0.766 0.522,0.766 0.105,0 0.234,-0.012 0.394,-0.031 0.928,-0.114 1.437,-0.707 1.32,-1.666 -0.051,-0.417 -0.235,-0.786 -0.611,-1.005 -0.284,-0.166 -0.568,-0.219 -0.865,-0.219 m -7.40848,3.6957 c -0.116,-0.002 -0.144,-0.15 -0.175,-0.235 l -1.936,-5.299 c -0.07,-0.201 -0.25,-0.687 -0.384,-0.837 -0.135,-0.149 -0.334,-0.174 -0.523,-0.177 -0.094,-0.002 -0.294,-0.005 -0.291,-0.152 0.001,-0.101 0.089,-0.124 0.183,-0.124 0.074,0 0.151,0.014 0.197,0.015 0.294,0.005 0.588,0.052 0.881,0.057 0.019,0 0.038,0.001 0.057,0.001 0.129,0 0.258,-0.007 0.387,-0.014 0.129,-0.007 0.258,-0.014 0.386,-0.014 0.018,0 0.036,0 0.054,0 0.105,0.002 0.252,0.005 0.25,0.131 -0.002,0.119 -0.119,0.133 -0.214,0.133 -0.022,0 -0.043,-10e-4 -0.062,-10e-4 -0.013,0 -0.026,-10e-4 -0.041,-10e-4 -0.249,0 -0.664,0.039 -0.669,0.367 -0.004,0.189 0.077,0.411 0.137,0.58 l 0.301,0.794 c 0.151,0.381 0.087,0.422 0.507,0.429 l 1.43,0.025 c 0.056,0.001 0.105,0.002 0.148,0.002 0.343,0 0.308,-0.054 0.512,-0.526 l 0.351,-0.794 c 0.054,-0.135 0.153,-0.365 0.156,-0.512 0.005,-0.315 -0.394,-0.322 -0.667,-0.327 -0.105,-0.001 -0.305,-0.005 -0.302,-0.162 0.001,-0.091 0.097,-0.103 0.161,-0.103 0.003,0 0.006,0 0.009,0 0.388,0.008 0.787,0.056 1.165,0.063 0.049,10e-4 0.099,10e-4 0.148,10e-4 0.182,0 0.364,-0.005 0.546,-0.01 0.18,-0.005 0.361,-0.01 0.541,-0.01 0.051,0 0.102,0 0.153,10e-4 0.052,10e-4 0.157,0.014 0.155,0.108 -0.002,0.14 -0.159,0.153 -0.268,0.153 -0.014,0 -0.027,0 -0.039,-10e-4 -0.004,0 -0.007,0 -0.011,0 -0.506,0 -0.694,0.6 -0.868,1.004 l -2.215,5.238 -0.15,0.197 m -0.976,-4.04 c -0.093,0 -0.183,0.013 -0.184,0.067 l 0.029,0.127 0.692,1.926 0.172,0.318 0.174,-0.313 0.746,-1.773 0.077,-0.23 c 0.002,-0.08 -0.112,-0.092 -0.203,-0.092 -0.02,0 -0.039,0.001 -0.055,0.001 -0.019,10e-4 -0.034,10e-4 -0.045,10e-4 l -1.208,-0.02 c -0.02,-0.001 -0.108,-0.012 -0.195,-0.012 m -3.92832,3.5896 c -0.014,0 -0.028,-0.001 -0.043,-0.003 -0.396,-0.048 -0.787,-0.139 -1.184,-0.188 -0.396,-0.048 -0.777,-0.052 -1.173,-0.101 -0.104,-0.013 -0.173,-0.053 -0.159,-0.168 0.011,-0.092 0.091,-0.112 0.17,-0.112 0.038,0 0.077,0.005 0.107,0.009 0.107,0.013 0.198,0.02 0.275,0.02 0.45,0 0.439,-0.232 0.508,-0.792 l 0.525,-4.277 c 0.081,-0.657 0.159,-0.859 -0.572,-0.949 -0.094,-0.011 -0.262,-0.021 -0.245,-0.157 0.011,-0.093 0.07,-0.117 0.141,-0.117 0.017,0 0.035,10e-4 0.053,0.003 0.397,0.049 0.788,0.139 1.184,0.187 0.396,0.05 0.777,0.054 1.173,0.102 0.094,0.012 0.175,0.043 0.161,0.158 -0.01,0.084 -0.082,0.104 -0.157,0.104 -0.046,0 -0.094,-0.008 -0.13,-0.012 -0.098,-0.011 -0.183,-0.017 -0.256,-0.017 -0.462,0 -0.457,0.223 -0.528,0.799 l -0.525,4.277 c -0.081,0.657 -0.157,0.849 0.573,0.938 0.093,0.011 0.271,0.034 0.254,0.169 -0.012,0.097 -0.076,0.127 -0.152,0.127 m -4.05499,-0.14601 c -0.006,0 -0.013,-0.001 -0.02,-0.002 -0.102,-0.022 -0.103,-0.119 -0.116,-0.208 -0.042,-0.309 -0.31,-0.313 -0.577,-0.369 l -3.731,-0.793 c -0.11,-0.024 -0.24,-0.066 -0.361,-0.066 -0.061,0 -0.119,0.01 -0.171,0.039 -0.095,0.044 -0.098,0.107 -0.128,0.198 l -0.117,0.093 c -0.092,-0.02 -0.097,-0.096 -0.102,-0.172 l -0.117,-1.422 -0.01,-0.259 0.13,-0.102 c 0.102,0.022 0.147,0.215 0.173,0.295 0.319,0.927 0.679,1.1 1.615,1.299 0.139,0.03 0.24,0.066 0.316,0.066 0.098,0 0.155,-0.06 0.199,-0.268 l 1.012,-4.759 c 0.138,-0.648 0.233,-0.842 -0.487,-0.995 -0.092,-0.02 -0.259,-0.044 -0.231,-0.178 0.018,-0.081 0.067,-0.106 0.128,-0.106 0.024,0 0.049,0.004 0.075,0.01 0.391,0.083 0.773,0.207 1.164,0.289 0.39,0.084 0.769,0.122 1.159,0.205 0.093,0.019 0.171,0.057 0.147,0.17 -0.015,0.071 -0.071,0.091 -0.134,0.091 -0.056,0 -0.116,-0.015 -0.16,-0.024 -0.146,-0.031 -0.262,-0.047 -0.356,-0.047 -0.359,0 -0.382,0.236 -0.493,0.758 l -0.968,4.553 c -0.112,0.524 -0.107,0.504 0.355,0.602 l 0.597,0.127 c 0.151,0.032 0.295,0.063 0.435,0.063 0.155,0 0.305,-0.038 0.454,-0.154 0.196,-0.162 0.329,-0.434 0.447,-0.635 l 0.143,-0.119 c 0.113,0.023 0.104,0.118 0.086,0.2 l -0.204,1.267 c -0.015,0.069 -0.026,0.353 -0.152,0.353 m -7.33391,-2.1521 c -0.026,0 -0.052,-0.005 -0.078,-0.015 -0.284,-0.109 -0.544,-0.254 -0.838,-0.367 -0.295,-0.113 -0.584,-0.179 -0.879,-0.292 -0.098,-0.038 -0.157,-0.117 -0.116,-0.225 0.018,-0.046 0.056,-0.062 0.101,-0.062 0.061,0 0.135,0.029 0.186,0.048 0.194,0.075 0.337,0.111 0.446,0.111 0.277,0 0.344,-0.234 0.514,-0.676 l 1.446,-3.768 -5.202,3.17 c -0.157,0.099 -0.278,0.195 -0.459,0.195 -0.024,0 -0.048,-0.002 -0.074,-0.006 l -1.217,-0.467 c -0.108,-0.041 -0.232,-0.1 -0.175,-0.247 0.017,-0.046 0.056,-0.062 0.101,-0.062 0.061,0 0.135,0.028 0.186,0.048 0.193,0.074 0.334,0.111 0.442,0.111 0.276,0 0.337,-0.236 0.508,-0.68 l 1.54,-4.013 c 0.233,-0.608 0.361,-0.796 -0.325,-1.059 -0.089,-0.034 -0.267,-0.069 -0.218,-0.196 0.028,-0.071 0.078,-0.099 0.137,-0.099 0.03,0 0.063,0.007 0.096,0.02 0.285,0.109 0.564,0.261 0.839,0.366 0.294,0.114 0.584,0.18 0.878,0.293 0.098,0.037 0.152,0.103 0.111,0.211 -0.019,0.049 -0.053,0.066 -0.092,0.066 -0.062,0 -0.137,-0.041 -0.191,-0.062 -0.191,-0.073 -0.332,-0.109 -0.44,-0.109 -0.28,0 -0.342,0.24 -0.511,0.679 l -1.702,4.434 6.177,-3.775 c 0.068,-0.051 0.187,-0.15 0.288,-0.15 0.016,0 0.032,0.003 0.047,0.009 l -0.003,0.212 -1.913,4.984 c -0.233,0.608 -0.351,0.799 0.326,1.059 0.098,0.038 0.255,0.098 0.213,0.206 -0.029,0.076 -0.087,0.108 -0.149,0.108 m -8.446,-3.56269 c -0.023,0 -0.048,-0.007 -0.076,-0.022 -0.781,-0.433 -1.533,-0.898 -2.323,-1.336 -0.57,-0.316 -1.178,-0.605 -1.748,-0.921 -0.083,-0.046 -0.131,-0.132 -0.08,-0.225 0.022,-0.04 0.056,-0.054 0.094,-0.054 0.067,0 0.148,0.044 0.206,0.077 0.213,0.118 0.362,0.173 0.477,0.173 0.229,0 0.328,-0.217 0.538,-0.596 l 2.074,-3.741 c 0.326,-0.587 0.464,-0.751 -0.17,-1.103 -0.092,-0.05 -0.234,-0.141 -0.178,-0.242 0.033,-0.059 0.079,-0.083 0.127,-0.083 0.035,0 0.072,0.012 0.106,0.032 0.184,0.101 0.366,0.25 0.549,0.352 l 3.594,1.992 0.071,0.111 -0.403,1.051 -0.085,0.241 -0.148,0.05 c -0.11,-0.061 -0.037,-0.345 -0.029,-0.424 0.136,-0.983 -0.359,-1.281 -1.15,-1.72 -0.361,-0.2 -0.644,-0.353 -0.895,-0.353 -0.253,0 -0.474,0.157 -0.709,0.581 l -0.887,1.6 c -0.173,0.312 -0.081,0.363 0.287,0.568 0.276,0.152 0.753,0.417 1.158,0.533 0.026,0.008 0.053,0.011 0.079,0.011 0.201,0 0.397,-0.208 0.568,-0.421 l 0.207,-0.09 c 0.045,0.025 0.091,0.075 0.009,0.222 -0.172,0.289 -0.343,0.554 -0.525,0.838 -0.124,0.268 -0.259,0.553 -0.392,0.816 l -0.152,0.036 -0.033,-0.223 c 0.102,-0.292 0.244,-0.657 0.03,-0.812 -0.333,-0.245 -0.816,-0.501 -1.092,-0.653 -0.169,-0.094 -0.278,-0.155 -0.37,-0.155 -0.112,0 -0.197,0.093 -0.329,0.332 l -0.738,1.332 c -0.087,0.157 -0.227,0.343 -0.088,0.505 0.117,0.136 0.521,0.361 0.668,0.442 0.312,0.173 0.708,0.392 1.062,0.468 0.082,0.018 0.158,0.027 0.228,0.027 0.233,0 0.416,-0.093 0.642,-0.253 l 0.281,-0.181 0.249,-0.102 c 0.092,0.051 0.006,0.184 -0.024,0.239 l -0.439,0.79 c -0.055,0.101 -0.118,0.291 -0.241,0.291 m -5.75608,-3.3897 c -0.04,0 -0.082,-0.019 -0.121,-0.047 -0.327,-0.229 -0.63,-0.492 -0.957,-0.721 -0.328,-0.23 -0.661,-0.412 -0.988,-0.641 -0.086,-0.06 -0.129,-0.129 -0.062,-0.223 0.026,-0.038 0.059,-0.052 0.094,-0.052 0.07,0 0.148,0.055 0.199,0.091 0.225,0.157 0.376,0.229 0.496,0.229 0.203,0 0.32,-0.203 0.558,-0.543 l 2.471,-3.53 c 0.38,-0.542 0.544,-0.684 -0.059,-1.106 -0.078,-0.054 -0.221,-0.142 -0.143,-0.254 0.031,-0.044 0.065,-0.061 0.1,-0.061 0.041,0 0.083,0.023 0.125,0.051 0.327,0.23 0.63,0.493 0.957,0.722 0.327,0.229 0.661,0.411 0.988,0.641 0.078,0.054 0.134,0.119 0.068,0.214 -0.024,0.035 -0.055,0.048 -0.088,0.048 -0.072,0 -0.155,-0.064 -0.208,-0.101 -0.223,-0.152 -0.374,-0.222 -0.495,-0.222 -0.203,0 -0.323,0.199 -0.565,0.544 l -2.471,3.53 c -0.38,0.542 -0.537,0.676 0.065,1.097 0.078,0.054 0.224,0.157 0.146,0.269 -0.033,0.047 -0.071,0.065 -0.11,0.065 m -3.8136,-2.8878 c -0.054,0 -0.118,-0.015 -0.199,-0.05 -0.441,-0.185 -1.072,-0.583 -1.424,-0.9 -1.429,-1.286 -1.739,-3.517 -0.438,-4.963 0.671,-0.745 1.619,-1.135 2.572,-1.135 0.815,0 1.633,0.284 2.288,0.873 0.515,0.465 0.854,0.968 1.118,1.601 0.136,0.335 0.114,0.344 -0.088,0.6 l -0.53,0.668 -0.178,0.024 c -0.211,-0.19 0.8,-1.5 -0.411,-2.59 -0.453,-0.408 -0.985,-0.575 -1.545,-0.575 -0.222,0 -0.448,0.026 -0.676,0.074 -0.736,0.157 -1.363,0.54 -1.862,1.095 -1.055,1.17 -1.419,2.879 -0.107,4.06 0.46,0.415 0.885,0.535 1.245,0.535 0.25,0 0.468,-0.057 0.647,-0.115 0.179,-0.057 0.317,-0.115 0.407,-0.115 0.032,0 0.057,0.007 0.076,0.025 l -0.005,0.178 -0.512,0.459 c -0.16,0.143 -0.235,0.251 -0.378,0.251 m -5.78601,-5.37731 c -0.04,0 -0.085,-0.012 -0.139,-0.04 -0.378,-0.184 -0.84,-0.587 -1.114,-0.892 -0.689,-0.765 -0.858,-1.957 -0.037,-2.696 0.302,-0.272 0.629,-0.374 0.965,-0.374 0.436,0 0.888,0.173 1.319,0.368 l 0.531,0.243 c 0.366,0.165 0.726,0.284 1.073,0.284 0.328,0 0.645,-0.106 0.948,-0.378 0.617,-0.556 0.495,-1.492 -0.032,-2.079 -0.339,-0.375 -0.707,-0.547 -1.088,-0.547 -0.34,0 -0.69,0.136 -1.039,0.384 -0.055,0.038 -0.186,0.154 -0.285,0.154 -0.027,0 -0.052,-0.009 -0.072,-0.031 l 0.051,-0.258 c 0.182,-0.206 0.377,-0.382 0.58,-0.565 0.125,-0.112 0.289,-0.293 0.468,-0.293 0.023,0 0.045,0.002 0.068,0.009 0.491,0.152 1.022,0.522 1.366,0.905 0.408,0.453 0.692,1.003 0.719,1.615 0.021,0.589 -0.179,1.151 -0.616,1.545 -0.334,0.301 -0.808,0.462 -1.26,0.462 -0.002,0 -0.005,0 -0.007,0 -0.372,-0.005 -0.831,-0.185 -1.18,-0.337 -0.469,-0.216 -1.115,-0.576 -1.691,-0.576 -0.255,0 -0.497,0.071 -0.703,0.257 -0.571,0.513 -0.393,1.244 0.071,1.76 0.311,0.345 0.607,0.486 0.932,0.486 0.247,0 0.51,-0.081 0.81,-0.217 l 0.292,-0.037 -0.017,0.171 c -0.21,0.175 -0.427,0.342 -0.637,0.517 -0.105,0.085 -0.176,0.16 -0.276,0.16 m -8.4281,-11.24729 -0.246,-0.032 c -0.056,-0.101 0.057,-0.2 0.116,-0.268 l 3.621,-4.327 c 0.139,-0.161 0.47,-0.56 0.532,-0.751 0.063,-0.191 -0.015,-0.376 -0.107,-0.542 -0.046,-0.082 -0.143,-0.257 -0.014,-0.328 0.021,-0.012 0.041,-0.017 0.059,-0.017 0.117,0 0.181,0.212 0.225,0.292 0.143,0.257 0.249,0.535 0.391,0.792 0.143,0.258 0.322,0.495 0.465,0.752 0.051,0.092 0.122,0.221 0.012,0.281 -0.022,0.013 -0.043,0.018 -0.062,0.018 -0.093,0 -0.152,-0.122 -0.19,-0.19 -0.097,-0.175 -0.287,-0.473 -0.522,-0.473 -0.049,0 -0.098,0.012 -0.15,0.041 -0.165,0.091 -0.318,0.272 -0.434,0.408 l -0.537,0.658 c -0.254,0.321 -0.322,0.287 -0.118,0.654 l 0.693,1.25 c 0.157,0.283 0.198,0.358 0.36,0.358 0.09,0 0.218,-0.024 0.425,-0.048 l 0.861,-0.093 c 0.145,-0.02 0.393,-0.05 0.522,-0.121 0.276,-0.153 0.082,-0.502 -0.05,-0.741 -0.051,-0.092 -0.148,-0.266 -0.01,-0.343 l 0.173,0.097 c 0.189,0.339 0.345,0.709 0.529,1.04 0.224,0.404 0.485,0.789 0.709,1.193 l -0.015,0.189 c -0.024,0.013 -0.046,0.018 -0.068,0.018 -0.102,0 -0.176,-0.133 -0.218,-0.208 -0.141,-0.255 -0.401,-0.321 -0.68,-0.321 -0.214,0 -0.438,0.038 -0.629,0.061 l -5.643,0.701 m 2.635,-3.028 c -0.007,0 -0.014,10e-4 -0.021,0.005 l -0.095,0.089 -1.321,1.561 -0.19,0.309 0.358,-0.005 1.908,-0.242 0.238,-0.048 c 0.101,-0.056 -0.044,-0.252 -0.074,-0.307 l -0.586,-1.057 c -0.019,-0.034 -0.128,-0.305 -0.217,-0.305 m -4.8811,-1.4894 c -0.069,0 -0.112,-0.056 -0.14,-0.124 -0.149,-0.371 -0.26,-0.756 -0.41,-1.126 -0.149,-0.371 -0.33,-0.706 -0.48,-1.076 -0.039,-0.098 -0.037,-0.178 0.07,-0.221 0.017,-0.007 0.033,-0.01 0.048,-0.01 0.095,0 0.147,0.127 0.177,0.202 0.152,0.377 0.271,0.508 0.45,0.508 0.145,0 0.33,-0.086 0.605,-0.197 l 3.995,-1.614 c 0.613,-0.248 0.828,-0.278 0.552,-0.96 -0.035,-0.088 -0.108,-0.239 0.019,-0.291 0.022,-0.009 0.042,-0.013 0.06,-0.013 0.068,0 0.106,0.058 0.134,0.128 0.149,0.37 0.26,0.756 0.409,1.126 0.15,0.37 0.33,0.705 0.48,1.075 0.036,0.088 0.048,0.174 -0.06,0.218 -0.016,0.006 -0.03,0.009 -0.044,0.009 -0.096,0 -0.144,-0.139 -0.175,-0.215 -0.156,-0.372 -0.275,-0.503 -0.456,-0.503 -0.146,0 -0.331,0.084 -0.608,0.195 l -3.995,1.615 c -0.614,0.248 -0.819,0.274 -0.543,0.956 0.035,0.088 0.102,0.253 -0.025,0.304 -0.023,0.01 -0.044,0.014 -0.063,0.014 m -1.8155,-4.1163 c -0.12,0 -0.121,-0.17 -0.148,-0.27 l -0.302,-1.127 c -0.03,-0.112 -0.057,-0.214 0.059,-0.31 l 4.23,-3.374 -5.123,-0.607 c -0.179,-0.018 -0.314,0.007 -0.365,-0.186 l -0.316,-1.177 c -0.03,-0.112 -0.129,-0.281 0.033,-0.325 0.017,-0.004 0.032,-0.006 0.046,-0.006 0.109,0 0.158,0.117 0.182,0.207 0.096,0.358 0.16,0.492 0.334,0.492 0.092,0 0.216,-0.037 0.391,-0.099 l 4.413,-1.52 c 0.489,-0.164 0.744,-0.264 0.592,-0.833 -0.024,-0.091 -0.06,-0.267 0.061,-0.299 0.016,-0.004 0.031,-0.006 0.044,-0.006 0.07,0 0.101,0.059 0.122,0.136 0.078,0.294 0.12,0.609 0.201,0.914 0.082,0.305 0.204,0.598 0.285,0.903 0.025,0.091 0.06,0.223 -0.062,0.256 -0.011,0.003 -0.021,0.004 -0.031,0.004 -0.118,0 -0.16,-0.19 -0.185,-0.284 -0.108,-0.405 -0.318,-0.535 -0.589,-0.535 -0.212,0 -0.461,0.079 -0.727,0.17 l -4.103,1.415 0.019,0.071 5.682,0.621 c 0.076,0.001 0.206,-10e-4 0.234,0.1 0.024,0.091 -0.079,0.152 -0.142,0.201 l -4.675,3.667 0.019,0.072 4.598,-1.232 c 0.183,-0.049 0.564,-0.129 0.66,-0.34 0.061,-0.136 0.055,-0.363 0.014,-0.515 -0.027,-0.102 -0.104,-0.309 0.048,-0.35 0.013,-0.003 0.025,-0.005 0.036,-0.005 0.085,0 0.118,0.094 0.137,0.165 0.106,0.396 0.175,0.813 0.283,1.218 0.088,0.325 0.215,0.64 0.302,0.964 0.022,0.082 0.042,0.196 -0.07,0.226 -0.013,0.003 -0.025,0.005 -0.036,0.005 -0.122,0 -0.155,-0.192 -0.18,-0.284 -0.038,-0.142 -0.089,-0.292 -0.238,-0.361 -0.044,-0.021 -0.102,-0.029 -0.167,-0.029 -0.195,0 -0.452,0.075 -0.574,0.108 l -4.192,1.123 c -0.183,0.049 -0.589,0.115 -0.699,0.275 -0.087,0.121 0.003,0.336 0.039,0.468 0.027,0.101 0.045,0.249 -0.097,0.287 -0.016,0.004 -0.03,0.006 -0.043,0.006 m -2.2721,-9.8167 c -0.085,0 -0.157,-0.027 -0.169,-0.13 -0.109,-0.886 -0.175,-1.768 -0.285,-2.664 -0.079,-0.648 -0.203,-1.309 -0.283,-1.957 -0.011,-0.094 0.031,-0.183 0.135,-0.196 0.005,-10e-4 0.011,-10e-4 0.016,-10e-4 0.111,0 0.13,0.157 0.142,0.257 0.062,0.5 0.179,0.62 0.461,0.62 0.124,0 0.28,-0.023 0.478,-0.048 l 4.245,-0.521 c 0.668,-0.082 0.881,-0.065 0.793,-0.785 -0.013,-0.104 -0.023,-0.273 0.092,-0.287 0.008,-0.001 0.017,-0.001 0.025,-0.001 0.097,0 0.142,0.073 0.153,0.16 0.026,0.208 0.012,0.443 0.038,0.651 l 0.5,4.078 -0.048,0.123 -1.086,0.292 -0.246,0.073 -0.127,-0.091 c -0.015,-0.125 0.257,-0.232 0.326,-0.273 0.875,-0.467 0.825,-1.043 0.715,-1.94 -0.091,-0.738 -0.154,-1.182 -0.854,-1.182 -0.082,0 -0.173,0.006 -0.274,0.018 l -1.815,0.222 c -0.354,0.044 -0.341,0.149 -0.29,0.566 0.038,0.313 0.105,0.855 0.249,1.25 0.08,0.223 0.403,0.268 0.712,0.284 0.064,0.003 0.183,0.02 0.194,0.114 0.006,0.051 -0.007,0.116 -0.174,0.137 -0.335,0.03 -0.65,0.048 -0.986,0.068 -0.29,0.057 -0.6,0.116 -0.891,0.162 l -0.119,-0.101 c -0.011,-0.094 0.1,-0.14 0.161,-0.158 0.296,-0.09 0.676,-0.188 0.675,-0.453 0.002,-0.413 -0.075,-0.955 -0.113,-1.267 -0.043,-0.352 -0.059,-0.478 -0.336,-0.478 -0.06,0 -0.132,0.006 -0.218,0.016 l -1.513,0.187 c -0.177,0.021 -0.41,0.018 -0.459,0.225 -0.042,0.174 0.014,0.634 0.035,0.8 0.043,0.355 0.098,0.803 0.245,1.135 0.146,0.331 0.352,0.454 0.695,0.571 l 0.311,0.12 c 0.077,0.023 0.217,0.048 0.229,0.141 0.013,0.105 -0.145,0.114 -0.207,0.122 l -0.897,0.11 c -0.066,0.008 -0.156,0.031 -0.235,0.031 m 2.32041,-6.94 c -0.019,0 -0.038,0 -0.057,0 -1.009,-0.018 -1.946,-0.56 -2.53,-1.369 -0.575,-0.798 -0.79,-1.748 -0.773,-2.715 0.007,-0.419 0.178,-3.007 0.556,-3.007 0,0 10e-4,0 10e-4,0 l 0.114,0.118 c -0.002,0.105 -0.121,0.303 -0.125,0.524 -0.006,0.336 0.285,0.359 0.563,0.359 0.022,0 0.043,0 0.065,-10e-4 0.019,0 0.038,0 0.056,0 0.019,0 0.038,0 0.056,10e-4 l 4.339,0.076 c 0.125,0.002 0.235,0.006 0.331,0.006 0.42,0 0.574,-0.074 0.584,-0.673 0.002,-0.105 -0.015,-0.272 0.118,-0.272 0.001,0 0.002,0 0.003,0 0.105,0.002 0.145,0.087 0.144,0.182 -0.004,0.221 -0.05,0.43 -0.054,0.661 -0.013,0.757 0.016,1.534 0.002,2.312 -0.018,1.02 -0.213,1.941 -0.909,2.717 -0.63,0.689 -1.538,1.081 -2.484,1.081 m -2.449,-5.266 c -0.168,0 -0.376,0.014 -0.472,0.107 -0.16,0.155 -0.19,0.68 -0.194,0.901 -0.033,1.902 1.214,3.269 3.169,3.302 0.019,0.001 0.039,0.001 0.059,0.001 0.801,0 1.621,-0.289 2.215,-0.833 0.673,-0.629 0.854,-1.372 0.869,-2.254 0.017,-0.915 -0.2,-1.13 -1.136,-1.145 l -4.36,-0.077 c -0.042,0 -0.094,-0.002 -0.15,-0.002 m 6.00519,-2.369102 c -0.006,0 -0.012,-0.001 -0.019,-0.002 -0.155,-0.024 -0.124,-0.222 -0.107,-0.325 0.08,-0.509 -0.494,-0.78 -0.872,-1.011 l -4.879,-2.921 -0.174,-0.177 c 0.018,-0.114 0.169,-0.122 0.256,-0.14 l 5.518,-1.18 c 0.208,-0.041 0.715,-0.152 0.882,-0.264 0.167,-0.112 0.219,-0.306 0.248,-0.493 0.014,-0.088 0.043,-0.269 0.168,-0.269 0.008,0 0.015,0.001 0.024,0.002 0.176,0.027 0.071,0.287 0.055,0.391 -0.046,0.291 -0.134,0.575 -0.18,0.866 -0.046,0.29 -0.051,0.588 -0.097,0.878 -0.015,0.097 -0.036,0.231 -0.142,0.231 -0.007,0 -0.014,0 -0.022,-0.002 -0.145,-0.022 -0.107,-0.198 -0.092,-0.291 0.038,-0.239 0.079,-0.701 -0.263,-0.754 -0.041,-0.007 -0.083,-0.009 -0.127,-0.009 -0.158,0 -0.329,0.036 -0.467,0.064 l -0.828,0.187 c -0.398,0.097 -0.43,0.029 -0.496,0.443 l -0.223,1.412 c -0.079,0.498 -0.068,0.425 0.427,0.727 l 0.736,0.457 c 0.127,0.073 0.341,0.203 0.486,0.226 0.018,0.003 0.036,0.004 0.052,0.004 0.267,0 0.324,-0.365 0.364,-0.619 0.016,-0.097 0.045,-0.278 0.178,-0.278 0.008,0 0.017,0 0.026,0.002 0.093,0.014 0.087,0.12 0.077,0.182 -0.06,0.384 -0.164,0.772 -0.223,1.146 -0.073,0.456 -0.103,0.92 -0.176,1.377 -0.008,0.048 -0.031,0.14 -0.11,0.14 m -1.956,-5.032 -0.129,0.011 -2.003,0.418 -0.339,0.127 0.285,0.215 1.653,0.985 0.216,0.109 c 0.004,0 0.008,0.001 0.012,0.001 0.103,0 0.11,-0.229 0.119,-0.289 l 0.189,-1.193 c 0.007,-0.042 0.101,-0.368 -0.003,-0.384 m 2.82189,-2.65849 c -0.063,0 -0.14,-0.021 -0.262,-0.052 l -0.826,-0.214 -0.094,-0.152 c 0.088,-0.269 1.696,0.12 2.199,-1.429 0.263,-0.809 0.035,-1.568 -0.445,-2.232 -0.444,-0.608 -1.048,-1.027 -1.758,-1.257 -0.4,-0.13 -0.816,-0.2 -1.22,-0.2 -1.109,0 -2.133,0.523 -2.533,1.754 -0.504,1.549 0.75,2.044 0.665,2.304 l -0.165,0.068 -0.627,-0.281 c -0.27,-0.12 -0.413,-0.123 -0.419,-0.445 -0.01,-0.478 0.097,-1.217 0.243,-1.668 0.489,-1.503 1.868,-2.575 3.371,-2.575 0.325,0 0.655,0.05 0.984,0.157 1.769,0.575 2.807,2.515 2.216,4.333 -0.214,0.66 -0.536,1.174 -1.007,1.672 -0.155,0.162 -0.22,0.217 -0.322,0.217 m 2.51252,-5.959214 c -0.142,-0.068 -0.054,-0.248 -0.008,-0.343 0.226,-0.463 -0.244,-0.891 -0.539,-1.221 l -3.81,-4.221 -0.115,-0.22 c 0.028,-0.057 0.085,-0.072 0.146,-0.072 0.049,0 0.1,0.01 0.14,0.014 l 5.621,0.485 c 0.132,0.013 0.383,0.034 0.6,0.034 0.131,0 0.249,-0.008 0.321,-0.03 0.192,-0.058 0.299,-0.228 0.382,-0.398 0.035,-0.073 0.104,-0.214 0.205,-0.214 0.018,0 0.036,0.005 0.056,0.014 0.16,0.078 -0.016,0.296 -0.062,0.39 -0.129,0.265 -0.296,0.511 -0.425,0.776 -0.129,0.264 -0.22,0.547 -0.349,0.811 -0.039,0.08 -0.09,0.185 -0.172,0.185 -0.016,0 -0.033,-0.004 -0.052,-0.013 -0.132,-0.064 -0.044,-0.221 -0.003,-0.306 0.106,-0.217 0.28,-0.646 -0.031,-0.799 -0.17,-0.082 -0.405,-0.103 -0.584,-0.12 l -0.847,-0.063 c -0.14,-0.008 -0.233,-0.022 -0.302,-0.022 -0.134,0 -0.18,0.052 -0.301,0.301 l -0.627,1.284 c -0.221,0.454 -0.189,0.388 0.196,0.821 l 0.571,0.652 c 0.099,0.108 0.266,0.294 0.398,0.358 0.043,0.021 0.084,0.031 0.123,0.031 0.213,0 0.354,-0.289 0.455,-0.497 0.039,-0.08 0.107,-0.22 0.213,-0.22 0.019,0 0.04,0.004 0.062,0.015 l 0.021,0.197 c -0.17,0.35 -0.383,0.69 -0.549,1.03 -0.203,0.416 -0.368,0.85 -0.57,1.266 l -0.164,0.095 m -2.546,-5.591 -0.362,0.023 0.21,0.289 1.292,1.425 0.176,0.168 c 0.01,0.005 0.02,0.007 0.029,0.007 0.089,0 0.155,-0.193 0.18,-0.244 l 0.53,-1.087 c 0.018,-0.037 0.204,-0.322 0.109,-0.368 l -0.127,-0.026 -2.037,-0.187 m 7.22509,-8.060291 -0.435,-0.365 1.311,-1.562 -1.562,-1.31 0.365,-0.435 1.562,1.311 1.317,-1.57 0.434,0.365 -1.317,1.569 1.57,1.318 -0.365,0.435 -1.569,-1.318 -1.311,1.562 z m 52.4725,2.649094 c -1.271,0 -2.464,-1.009 -2.464,-2.295 0,-1.285 1.193,-2.302 2.464,-2.302 1.342,0 2.457,0.94 2.457,2.302 0,1.363 -1.115,2.295 -2.457,2.295 m 0.014,-4.399 c -0.536,0 -1.03,0.219 -1.37,0.628 -0.346,0.41 -0.473,0.947 -0.473,1.476 0,0.509 0.12,1.039 0.445,1.441 0.339,0.431 0.847,0.663 1.398,0.663 0.53,0 0.996,-0.24 1.335,-0.642 0.353,-0.43 0.466,-0.918 0.466,-1.462 0,-0.529 -0.106,-1.002 -0.438,-1.426 -0.339,-0.417 -0.819,-0.678 -1.363,-0.678 m -4.02151,4.286604 c -0.268,0 -0.537,-0.029 -0.805,-0.029 -0.268,0 -0.522,0.029 -0.791,0.029 l -0.12,-0.099 c 0,-0.092 0.113,-0.092 0.177,-0.092 0.494,0 0.459,-0.135 0.459,-0.579 l 0,-2.895 c 0,-0.445 0.035,-0.586 -0.459,-0.586 -0.008,0 -0.017,0 -0.026,0 -0.064,0 -0.151,-0.005 -0.151,-0.085 l 0.12,-0.092 c 0.269,0 0.537,0.028 0.805,0.028 0.269,0 0.523,-0.028 0.791,-0.028 l 0.121,0.092 c 0,0.08 -0.093,0.085 -0.158,0.085 -0.009,0 -0.018,0 -0.026,0 -0.488,0.007 -0.459,0.134 -0.459,0.586 l 0,2.895 c 0,0.444 -0.036,0.579 0.459,0.579 0.063,0 0.184,0 0.184,0.092 l -0.121,0.099 m -3.01959,0 c -0.205,0 -0.402,-0.029 -0.614,-0.029 -0.212,0 -0.409,0.029 -0.621,0.029 l -0.127,-0.113 0.176,-0.078 c 0.494,0 0.466,-0.141 0.466,-0.586 l 0,-2.712 -2.5,3.241 c -0.085,0.113 -0.141,0.213 -0.289,0.248 l -0.876,0 c -0.078,0 -0.169,-0.008 -0.169,-0.113 l 0.176,-0.078 c 0.494,0 0.46,-0.141 0.46,-0.586 l 0,-2.888 c 0,-0.438 0.034,-0.586 -0.46,-0.586 -0.02,0 -0.045,0.002 -0.07,0.002 -0.056,0 -0.113,-0.01 -0.113,-0.073 l 0.127,-0.106 c 0.204,0 0.416,0.028 0.614,0.028 0.212,0 0.41,-0.028 0.622,-0.028 l 0.119,0.106 c 0,0.063 -0.053,0.073 -0.107,0.073 -0.025,0 -0.049,-0.002 -0.069,-0.002 -0.494,0 -0.459,0.148 -0.459,0.586 l 0,3.192 2.966,-3.856 0.176,-0.169 0.05,0.134 0,3.587 c 0,0.438 -0.029,0.586 0.459,0.586 l 0.184,0.078 -0.121,0.113 m -6.1838,0 c -0.6,0 -1.193,-0.029 -1.801,-0.029 -0.437,0 -0.889,0.029 -1.327,0.029 l -0.12,-0.106 0.184,-0.085 c 0.487,0 0.458,-0.141 0.458,-0.579 l 0,-2.874 c 0,-0.452 0.029,-0.593 -0.458,-0.593 l -0.184,-0.085 0.12,-0.106 c 0.141,0 0.296,0.028 0.438,0.028 l 2.761,0 0.077,0.043 0.106,0.748 0.029,0.17 -0.071,0.078 -0.156,-0.24 c -0.239,-0.622 -0.628,-0.636 -1.235,-0.636 -0.558,0 -0.869,0.007 -0.869,0.656 l 0,1.229 c 0,0.24 0.071,0.24 0.353,0.24 0.212,0 0.579,0 0.855,-0.063 0.155,-0.035 0.212,-0.247 0.247,-0.452 l 0.092,-0.12 c 0.035,0 0.078,0.014 0.078,0.127 -0.008,0.226 -0.022,0.437 -0.036,0.664 0.014,0.197 0.028,0.409 0.036,0.607 l -0.078,0.07 -0.092,-0.119 c -0.035,-0.205 -0.07,-0.467 -0.247,-0.488 -0.195,-0.025 -0.436,-0.029 -0.636,-0.029 -0.082,0 -0.157,0.001 -0.219,0.001 -0.289,0 -0.353,0 -0.353,0.332 l 0,1.024 c 0,0.119 -0.021,0.275 0.113,0.324 0.113,0.043 0.424,0.043 0.537,0.043 0.24,0 0.543,0 0.777,-0.071 0.233,-0.07 0.332,-0.197 0.438,-0.416 l 0.105,-0.198 0.113,-0.141 0.064,0.148 0,0.607 c 0,0.092 0.035,0.262 -0.099,0.262 m -6.6079,0.112396 c -1.356,0 -2.683,-0.974 -2.683,-2.386 0,-0.678 0.296,-1.229 0.819,-1.66 0.494,-0.402 1.087,-0.551 1.723,-0.551 0.515,0 1.066,0.106 1.504,0.389 0.162,0.105 0.127,0.183 0.127,0.367 l 0,0.812 c 0,0.106 -0.014,0.31 0.078,0.389 l 0.218,0.055 0.135,0.015 0.134,0.092 -0.12,0.085 c -0.247,0 -0.488,-0.029 -0.728,-0.029 -0.254,0 -0.508,0.029 -0.762,0.029 -0.064,0 -0.163,0 -0.163,-0.092 0,-0.08 0.075,-0.085 0.141,-0.085 0.01,0 0.02,0 0.029,0 0.409,0 0.48,-0.064 0.48,-0.459 l 0,-0.586 c 0,-0.17 0.014,-0.474 -0.134,-0.593 -0.198,-0.163 -0.565,-0.198 -0.805,-0.198 -0.607,0 -1.123,0.162 -1.525,0.629 -0.36,0.409 -0.509,0.904 -0.509,1.44 0,0.508 0.177,1.108 0.509,1.511 0.36,0.445 0.861,0.621 1.419,0.621 1.25,0 1.116,-0.91 1.356,-0.91 l 0.106,0.141 -0.014,0.296 c -0.022,0.234 0.042,0.389 -0.198,0.481 -0.339,0.134 -0.777,0.197 -1.137,0.197 m 27.13809,-6.732101 c -0.269,0 -0.537,-0.028 -0.805,-0.028 -0.268,0 -0.523,0.028 -0.791,0.028 l -0.12,-0.099 c 0,-0.092 0.113,-0.092 0.176,-0.092 0.495,0 0.459,-0.134 0.459,-0.578 l 0,-2.895996 c 0,-0.445 0.036,-0.586 -0.459,-0.586 -0.008,0 -0.018,0 -0.028,0 -0.064,0 -0.148,-0.005 -0.148,-0.085 l 0.12,-0.092 c 0.268,0 0.537,0.029 0.805,0.029 0.268,0 0.522,-0.029 0.791,-0.029 l 0.12,0.092 c 0,0.08 -0.09,0.085 -0.155,0.085 -0.01,0 -0.02,0 -0.028,0 -0.487,0.007 -0.46,0.135 -0.46,0.586 l 0,2.895996 c 0,0.444 -0.035,0.578 0.46,0.578 0.063,0 0.183,0 0.183,0.092 l -0.12,0.099 m -3.1747,0 c -0.268,0 -0.537,-0.028 -0.805,-0.028 -0.268,0 -0.523,0.028 -0.791,0.028 l -0.12,-0.099 c 0,-0.092 0.113,-0.092 0.177,-0.092 0.494,0 0.459,-0.134 0.459,-0.578 l 0,-2.895996 c 0,-0.445 0.035,-0.586 -0.459,-0.586 -0.009,0 -0.018,0 -0.028,0 -0.064,0 -0.149,-0.005 -0.149,-0.085 l 0.12,-0.092 c 0.268,0 0.537,0.029 0.805,0.029 0.269,0 0.523,-0.029 0.791,-0.029 l 0.12,0.092 c 0,0.08 -0.09,0.085 -0.155,0.085 -0.01,0 -0.02,0 -0.029,0 -0.487,0.007 -0.458,0.135 -0.458,0.586 l 0,2.895996 c 0,0.444 -0.036,0.578 0.458,0.578 0.064,0 0.184,0 0.184,0.092 l -0.12,0.099 m -2.92779,0.282211 -0.106,-0.121 c -0.052,-0.145 -0.161,-0.164 -0.288,-0.164 -0.046,0 -0.094,0.003 -0.142,0.003 l -2.564,0 c -0.039,0 -0.083,-0.003 -0.127,-0.003 -0.083,0 -0.166,0.009 -0.226,0.059 l -0.057,0.149 -0.063,0.077 -0.092,-0.099 -0.275,-0.917 -0.042,-0.17 0.07,-0.085 0.155,0.169 c 0.339,0.566 0.6,0.629 1.243,0.629 0.061,0 0.113,0.004 0.155,0.004 0.108,0 0.156,-0.026 0.156,-0.209 l 0,-3.268997 c 0,-0.446 0.036,-0.586 -0.459,-0.586 -0.009,0 -0.018,0 -0.028,0 -0.064,0 -0.149,-0.005 -0.149,-0.085 l 0.12,-0.092 c 0.269,0 0.537,0.029 0.805,0.029 0.269,0 0.523,-0.029 0.791,-0.029 l 0.12,0.092 c 0,0.08 -0.09,0.085 -0.155,0.085 -0.01,0 -0.02,0 -0.028,0 -0.487,0 -0.459,0.134 -0.459,0.586 l 0,3.127997 c 0,0.334 0,0.346 0.255,0.346 0.019,0 0.04,0 0.063,0 l 0.409,0 c 0.219,0 0.416,0 0.572,-0.184 0.106,-0.134 0.155,-0.331 0.205,-0.48 l 0.078,-0.098 0.084,0.119 0.043,0.862 c 0,0.049 0.035,0.254 -0.064,0.254 m -5.2574,-0.282211 c -0.268,0 -0.537,-0.028 -0.805,-0.028 -0.268,0 -0.523,0.028 -0.791,0.028 l -0.12,-0.099 c 0,-0.092 0.113,-0.092 0.177,-0.092 0.494,0 0.458,-0.134 0.458,-0.578 l 0,-2.895996 c 0,-0.445 0.036,-0.586 -0.458,-0.586 -0.009,0 -0.018,0 -0.028,0 -0.064,0 -0.149,-0.005 -0.149,-0.085 l 0.12,-0.092 c 0.268,0 0.537,0.029 0.805,0.029 0.269,0 0.523,-0.029 0.791,-0.029 l 0.12,0.092 c 0,0.08 -0.09,0.085 -0.155,0.085 -0.01,0 -0.02,0 -0.029,0 -0.487,0.007 -0.458,0.135 -0.458,0.586 l 0,2.895996 c 0,0.444 -0.036,0.578 0.458,0.578 0.064,0 0.184,0 0.184,0.092 l -0.12,0.099 m -3.01891,0 c -0.205,0 -0.402,-0.028 -0.615,-0.028 -0.211,0 -0.409,0.028 -0.621,0.028 l -0.127,-0.113 0.176,-0.078 c 0.495,0 0.466,-0.141 0.466,-0.586 l 0,-2.711996 -2.499,3.241996 c -0.085,0.113 -0.142,0.212 -0.29,0.247 l -0.876,0 c -0.077,0 -0.169,-0.007 -0.169,-0.113 l 0.176,-0.078 c 0.495,0 0.459,-0.141 0.459,-0.586 l 0,-2.887996 c 0,-0.438 0.036,-0.586 -0.459,-0.586 -0.02,0 -0.046,0.002 -0.072,0.002 -0.055,0 -0.111,-0.01 -0.111,-0.072 l 0.127,-0.107 c 0.205,0 0.416,0.029 0.615,0.029 0.211,0 0.409,-0.029 0.621,-0.029 l 0.12,0.107 c 0,0.062 -0.053,0.072 -0.106,0.072 -0.025,0 -0.05,-0.002 -0.071,-0.002 -0.494,0 -0.458,0.148 -0.458,0.586 l 0,3.191996 2.965,-3.855996 0.177,-0.17 0.049,0.135 0,3.586996 c 0,0.438 -0.028,0.586 0.459,0.586 l 0.184,0.078 -0.12,0.113 m -8.27479,0.112808 c -0.409,0 -1.003,-0.014 -1.398,-0.085 -0.078,-0.014 -0.325,-0.048 -0.325,-0.169 l 0.077,-0.064 c 0.085,0 0.205,0.057 0.34,0.057 0.367,0 0.317,-0.311 0.317,-0.594 l 0,-2.902004 c 0,-0.451 0.028,-0.607 -0.466,-0.607 -0.02,0 -0.045,0.002 -0.07,0.002 -0.054,0 -0.106,-0.009 -0.106,-0.072 l 0.119,-0.107 c 0.149,0 0.304,0.029 0.446,0.029 0.578,0 1.144,-0.029 1.722,-0.029 0.417,0 0.784,0.029 1.137,0.276 0.325,0.212 0.551,0.586 0.551,0.989004 0,0.713 -0.628,1.172 -1.263,1.249 0.479,0.1 0.981,0.41 0.981,0.967 0,0.418 -0.304,0.728 -0.664,0.884 -0.41,0.176 -0.96,0.176 -1.398,0.176 m -0.085,-1.999 c -0.311,0 -0.346,0.015 -0.346,0.34 l 0,0.995 c 0,0.12 -0.014,0.311 0.07,0.403 0.113,0.128 0.432,0.128 0.58,0.128 0.614,0 1.2,-0.255 1.2,-0.961 0,-0.248 -0.084,-0.488 -0.261,-0.65 -0.24,-0.226 -0.558,-0.255 -0.862,-0.255 l -0.381,0 m 0.537,-2.394004 c -0.184,0 -0.523,0.008 -0.679,0.107 -0.218,0.133 -0.204,0.459 -0.204,0.685 l 0,1.137004 c 0,0.292 0.036,0.328 0.232,0.328 0.064,0 0.145,-0.004 0.248,-0.004 0.396,0 0.77,0 1.123,-0.204 0.36,-0.198 0.544,-0.544 0.544,-0.954 0,-0.296004 -0.134,-0.613004 -0.353,-0.812004 -0.262,-0.24 -0.572,-0.283 -0.911,-0.283 m -3.6265,4.280196 c -0.268,0 -0.537,-0.028 -0.805,-0.028 -0.268,0 -0.523,0.028 -0.791,0.028 l -0.12,-0.099 c 0,-0.092 0.113,-0.092 0.177,-0.092 0.494,0 0.458,-0.134 0.458,-0.578 l 0,-2.895996 c 0,-0.445 0.036,-0.586 -0.458,-0.586 -0.009,0 -0.018,0 -0.028,0 -0.064,0 -0.149,-0.005 -0.149,-0.085 l 0.12,-0.092 c 0.268,0 0.537,0.029 0.805,0.029 0.269,0 0.523,-0.029 0.791,-0.029 l 0.12,0.092 c 0,0.08 -0.09,0.085 -0.155,0.085 -0.01,0 -0.02,0 -0.029,0 -0.487,0.007 -0.458,0.135 -0.458,0.586 l 0,2.895996 c 0,0.444 -0.036,0.578 0.458,0.578 0.064,0 0.184,0 0.184,0.092 l -0.12,0.099 m -3.34529,0 c -0.6,0 -1.194,-0.028 -1.801,-0.028 -0.437,0 -0.889,0.028 -1.327,0.028 l -0.12,-0.106 0.183,-0.085 c 0.488,0 0.459,-0.141 0.459,-0.578 l 0,-2.874996 c 0,-0.452 0.029,-0.593 -0.459,-0.593 l -0.183,-0.084 0.12,-0.107 c 0.141,0 0.296,0.029 0.438,0.029 l 2.761,0 0.077,0.042 0.106,0.748 0.029,0.17 -0.071,0.077 -0.155,-0.24 c -0.241,-0.621 -0.629,-0.635 -1.236,-0.635 -0.558,0 -0.869,0.007 -0.869,0.657 l 0,1.229 c 0,0.24 0.071,0.24 0.353,0.24 0.212,0 0.579,0 0.855,-0.064 0.155,-0.035 0.212,-0.247 0.247,-0.452 l 0.092,-0.12 c 0.035,0 0.077,0.014 0.077,0.127 -0.007,0.226 -0.021,0.438 -0.035,0.664 0.014,0.197 0.028,0.409 0.035,0.607 l -0.077,0.07 -0.092,-0.12 c -0.035,-0.204 -0.071,-0.465 -0.247,-0.487 -0.198,-0.025 -0.442,-0.029 -0.643,-0.029 -0.079,0 -0.152,0.001 -0.212,0.001 -0.289,0 -0.353,0 -0.353,0.332 l 0,1.024 c 0,0.12 -0.021,0.276 0.113,0.325 0.113,0.042 0.424,0.042 0.537,0.042 0.24,0 0.544,0 0.777,-0.07 0.233,-0.071 0.331,-0.198 0.437,-0.417 l 0.106,-0.198 0.113,-0.14 0.064,0.147 0,0.608 c 0,0.091 0.035,0.261 -0.099,0.261"
             id="path4330"
             style="fill:#000000;fill-opacity:1;fill-rule:nonzero;stroke:none" />
        </g>
      </g>
    </g>
  </g>
</svg>
